<?xml version="1.0" encoding="UTF-8" standalone="no"?>
<!-- Created with Inkscape (http://www.inkscape.org/) -->

<svg
   version="1.1"
   id="svg635"
   width="402.20581"
   height="273.53546"
   viewBox="0 0 402.20581 273.53546"
   sodipodi:docname="1716391186895.jpg"
   xmlns:inkscape="http://www.inkscape.org/namespaces/inkscape"
   xmlns:sodipodi="http://sodipodi.sourceforge.net/DTD/sodipodi-0.dtd"
   xmlns="http://www.w3.org/2000/svg"
   xmlns:svg="http://www.w3.org/2000/svg">
  <defs
     id="defs639" />
  <sodipodi:namedview
     id="namedview637"
     pagecolor="#ffffff"
     bordercolor="#000000"
     borderopacity="0.25"
     inkscape:showpageshadow="2"
     inkscape:pageopacity="0.0"
     inkscape:pagecheckerboard="0"
     inkscape:deskcolor="#d1d1d1"
     showgrid="false"
     inkscape:zoom="0.96583333"
     inkscape:cx="449.35289"
     inkscape:cy="358.23986"
     inkscape:window-width="1920"
     inkscape:window-height="1017"
     inkscape:window-x="-8"
     inkscape:window-y="-8"
     inkscape:window-maximized="1"
     inkscape:current-layer="g641" />
  <g
     inkscape:groupmode="layer"
     inkscape:label="Image"
     id="g641"
     transform="translate(-92.284668,-63.134644)">
    <path
       style="display:inline;fill:#3dbbad;fill-opacity:1"
       d="m 222.85695,332.1323 c 4.24167,-2.13881 13.6993,-7.53017 21.01694,-11.9808 l 13.30481,-8.09206 5.07577,1.08855 c 14.85037,3.18484 29.62433,-4.1118 36.74535,-18.14799 2.42537,-4.78062 3.81774,-6.11926 10.64526,-10.23451 15.4047,-9.28509 47.43571,-22.56469 70.81462,-29.35875 10.88823,-3.16419 23.5403,-5.42463 23.5403,-4.20575 0,0.26725 -0.91539,3.14386 -2.0342,6.39246 -7.57312,21.98942 -6.77274,36.91188 2.3336,43.50847 7.64838,5.54046 13.47611,3.48591 24.62548,-8.68163 16.93992,-18.48688 47.00128,-65.44078 61.09107,-95.42029 3.74616,-7.97089 4.46637,-10.47828 4.47443,-15.57784 0.008,-5.1664 -0.42286,-6.64485 -2.87429,-9.85885 -5.73872,-7.52385 -16.20561,-9.62893 -25.19661,-5.0675 -2.70571,1.3727 -5.18313,2.4977 -5.50537,2.5 -0.32224,0.002 -2.68474,-1.63101 -5.25,-3.62958 L 451,161.73245 l 0.0153,-16.61622 c 0.008,-9.13893 0.34592,-17.11808 0.75,-17.73145 0.40408,-0.61337 1.85969,-1.45991 3.23469,-1.88119 4.245,-1.30063 7.94697,-4.4876 10.26597,-8.8378 1.99994,-3.7517 2.2507,-5.85564 2.5226,-21.16579 0.41166,-23.179361 -1.37571,-28.383957 -10.28857,-29.958961 -8.80818,-1.556506 -64.54616,-2.644365 -121,-2.3616 -61.65909,0.308836 -64.14602,0.393715 -67.99211,2.320561 -5.80009,2.905779 -6.70959,5.328403 -6.00675,16 0.32602,4.95 0.84552,11.069034 1.15446,13.597854 l 0.5617,4.597855 -12.2195,0.562991 c -6.72072,0.30964 -12.68844,1.03194 -13.26159,1.60509 -0.57316,0.57316 -0.94951,4.21328 -0.83634,8.08916 0.11318,3.87588 -0.0558,7.04705 -0.37557,7.04705 -0.31973,0 -3.32835,-1.38669 -6.68581,-3.08153 -17.45465,-8.81108 -35.89699,-6.54244 -49.21609,6.05421 -2.95477,2.7945 -6.87952,7.88136 -8.72166,11.30412 -2.93622,5.45559 -3.35252,7.1483 -3.37505,13.7232 -0.0141,4.125 0.32718,8.46538 0.75846,9.64528 0.70437,1.927 -0.21139,2.67737 -9,7.37462 -20.53126,10.97333 -37.59008,24.51815 -45.68891,36.2773 C 111.39889,204.3901 107,215.53494 107,220.07371 c 0,2.20367 -1.83835,5.25525 -7.038394,11.68339 -7.886343,9.74888 -8.900414,12.16115 -6.592809,15.683 3.152417,4.8112 49.634223,43.55205 76.131203,63.45253 25.68093,19.28758 37.97191,26.66299 42.81815,25.69374 1.55467,-0.31093 6.29713,-2.31527 10.5388,-4.45407 z"
       id="path5206"
       inkscape:export-filename="deco\book.svg"
       inkscape:export-xdpi="96"
       inkscape:export-ydpi="96" />
    <path
       style="display:inline;fill:#f15044;fill-opacity:1"
       d="m 481.95196,188.56982 c 3.89985,-5.66823 3.84081,-7.86336 -0.29635,-11.01893 -5.39892,-4.11795 -8.52731,-3.47278 -12.65561,2.60997 -2.01204,2.96459 -3.03307,5.31593 -2.40169,5.53084 0.60407,0.20561 3.52907,1.92258 6.5,3.81547 2.97093,1.8929 5.49257,3.45316 5.60365,3.46723 0.11108,0.0141 1.57358,-1.96798 3.25,-4.40458 z"
       id="path5282" />
    <path
       style="display:inline;fill:#544b9c;fill-opacity:1"
       d="m 476.17486,194.7107 c -2.21016,-2.66309 -11.29484,-6.99072 -12.38551,-5.90005 -0.70995,0.70995 0.5089,1.81353 3.90191,3.5329 2.7139,1.37524 5.53953,3.22961 6.27917,4.12082 0.89654,1.08026 1.67814,1.28706 2.34481,0.62039 0.66666,-0.66666 0.61987,-1.45802 -0.14038,-2.37406 z"
       id="path5280" />
    <path
       style="display:inline;fill:#4c4f98;fill-opacity:1"
       d="m 427.07991,253.69789 c 5.81895,-9.45884 16.5481,-26.79374 23.84256,-38.522 7.29445,-11.72826 13.0154,-21.57135 12.71322,-21.87354 -0.30219,-0.30218 -1.15312,-0.31777 -1.89095,-0.0346 -1.20842,0.46371 -43.06483,66.62768 -47.11872,74.48229 -1.58797,3.07677 -1.58273,3.24722 0.0983,3.19789 1.19883,-0.0352 5.21268,-5.63904 12.35559,-17.25 z"
       id="path5278" />
    <path
       style="display:inline;fill:#4c4f98;fill-opacity:1"
       d="M 433.28203,257.24123 C 438.99144,248.03355 446.91989,235.1 450.90081,228.5 c 3.98091,-6.6 9.96533,-16.43727 13.29869,-21.86059 4.78645,-7.78748 5.77051,-10.04436 4.68058,-10.73469 -0.75904,-0.48075 -1.62427,-0.88099 -1.92272,-0.88941 -0.29845,-0.008 -3.35652,4.59719 -6.7957,10.23469 -6.5841,10.79264 -22.32828,36.21304 -34.70784,56.03893 -7.09708,11.36599 -8.55856,15.90786 -4.40322,13.68399 1.01788,-0.54475 6.52202,-8.52401 12.23143,-17.73169 z"
       id="path5276" />
    <path
       style="display:inline;fill:#4c4f98;fill-opacity:1"
       d="m 434.713,265.75 c 4.48027,-7.2875 10.85586,-17.75 14.16798,-23.25 3.31212,-5.5 7.78325,-12.925 9.93585,-16.5 2.15259,-3.575 6.44941,-10.68 9.54849,-15.78888 3.09907,-5.10888 5.63468,-9.75888 5.63468,-10.33333 0,-2.16824 -2.59751,-0.0562 -5.16823,4.20222 -1.46752,2.43099 -12.06582,19.76261 -23.55176,38.5147 C 426.56398,273.15073 423.44485,279 425.86686,279 c 0.3851,0 4.36586,-5.9625 8.84614,-13.25 z"
       id="path5274" />
    <path
       style="display:inline;fill:#f2fafd;fill-opacity:1"
       d="m 420.76469,285.55322 c 3.1273,-2.88574 3.55391,-3.7403 2.62087,-5.25 -0.61295,-0.99177 -2.14689,-1.81323 -3.40877,-1.82547 -1.3945,-0.0135 -2.68418,-0.89596 -3.28837,-2.25 -1.53754,-3.44575 -5.24907,-2.92682 -6.59059,0.92147 -1.75902,5.04592 -1.42382,8.85078 0.77973,8.85078 1.03265,0 2.43775,0.675 3.12244,1.5 1.78084,2.14578 2.57822,1.9163 6.76469,-1.94678 z"
       id="path5272" />
    <path
       style="display:inline;fill:#f2fafd;fill-opacity:1"
       d="m 430.51382,103.75 c -0.062,-3.9875 -0.20293,-12.11739 -0.31324,-18.066422 L 430,74.867155 427.25,75.183578 424.5,75.5 424.71315,93 c 0.11723,9.625 0.22973,17.6125 0.25,17.75 0.0203,0.1375 1.30281,0.25 2.8501,0.25 h 2.81325 z"
       id="path5268" />
    <path
       style="display:inline;fill:#f2fafd;fill-opacity:1"
       d="m 422.5833,106.29308 c 0.61578,-4.10633 -0.065,-30.115151 -0.80739,-30.846333 C 421.62416,75.297291 398.55,74.997392 370.5,74.780305 c -49.1519,-0.380399 -93.94126,0.327618 -95.11722,1.503585 -0.31118,0.311182 -0.81378,7.712156 -1.11689,16.44661 l -0.5511,15.88083 52.39261,0.24415 c 43.09801,0.20084 74.89791,0.87774 93.08133,1.98133 2.47076,0.14996 2.74594,-0.21838 3.39457,-4.54373 z"
       id="path5262" />
    <path
       style="display:inline;fill:#f2fafd;fill-opacity:1"
       d="m 454.49969,110.00096 c 0.92505,-2.91454 1.01839,-31.816217 0.10571,-32.728898 -0.4098,-0.409794 -5.71157,-0.915072 -11.78172,-1.12284 l -11.03664,-0.377759 0.52682,17.864268 c 0.28975,9.825349 0.56267,17.922979 0.60648,17.994729 0.0438,0.0717 4.76764,0.20535 10.4974,0.29687 9.76734,0.15603 10.4592,0.0358 11.08195,-1.92637 z"
       id="path5260" />
    <path
       style="display:inline;fill:#ef5148;fill-opacity:1"
       d="m 292.36971,128.75 c 0.33164,-1.2375 0.60913,-5.76466 0.61664,-10.06037 l 0.0136,-7.81036 -3.75,0.31036 -3.75,0.31037 -0.2866,9.18005 -0.2866,9.18004 2.7866,0.42012 c 1.53263,0.23107 3.07162,0.48755 3.41997,0.56996 0.34835,0.0824 0.90471,-0.86267 1.23634,-2.10017 z"
       id="path5258" />
    <path
       style="display:inline;fill:#ef5148;fill-opacity:1"
       d="m 272.25,129.31938 10.75,-0.619 v -8.93215 -8.93215 l -12.25,0.64081 c -6.7375,0.35245 -13.54446,0.88759 -15.12659,1.18922 -2.82797,0.53914 -2.86614,0.63533 -2.25869,5.69115 0.33984,2.82851 0.62181,6.88912 0.62659,9.02358 l 0.009,3.88084 3.75,-0.66165 c 2.0625,-0.36391 8.5875,-0.9402 14.5,-1.28065 z"
       id="path5256" />
    <path
       style="display:inline;fill:#ef5148;fill-opacity:1"
       d="M 437.1978,158.37775 C 437.63901,158.10507 438,148.04692 438,136.0263 v -21.85566 l -7.25,-0.59604 C 415.19275,112.29561 364.89229,111 330.79428,111 H 295 v 10.5 c 0,8.45428 0.27952,10.5 1.43471,10.5 0.78908,0 5.20832,2.87935 9.82052,6.39854 8.29092,6.32614 8.43595,6.38887 12.8153,5.54356 2.43621,-0.47025 5.32947,-0.8624 6.42947,-0.87145 1.1,-0.009 6.49955,3.86428 11.999,8.60741 l 9.999,8.62386 44.44881,-0.71419 c 24.44684,-0.39281 44.80979,-0.9373 45.25099,-1.20998 z"
       id="path5246" />
    <path
       style="display:inline;fill:#f2fafd;fill-opacity:1"
       d="m 331,237.60676 c 13.17186,-7.83898 31.71866,-14.10492 45.30071,-15.30463 9.86129,-0.87105 6.82995,-2.39191 -4.90082,-2.4588 -18.92501,-0.10792 -35.23647,6.77702 -47.89989,20.21817 -2.75,2.91889 -3.875,4.56495 -2.5,3.65791 1.375,-0.90705 5.875,-3.65774 10,-6.11265 z"
       id="path5244" />
    <path
       style="display:inline;fill:#f2fafd;fill-opacity:1"
       d="m 325.5,247.13813 c 17.98385,-8.69312 41.95589,-17.53327 57.5,-21.20425 8.72259,-2.05997 8.48488,-3.23806 -0.5,-2.478 -14.31034,1.21056 -31.77161,6.17613 -45,12.79695 -6.6031,3.30485 -19.66873,12.0355 -21.70592,14.50422 -1.5187,1.84039 -1.82183,1.95341 9.70592,-3.61892 z"
       id="path5242" />
    <path
       style="display:inline;fill:#f2fafd;fill-opacity:1"
       d="m 313.44327,248.51784 c 7.96339,-11.56248 21.49176,-22.04619 35.31518,-27.36722 6.16198,-2.37193 8.0311,-2.59741 21.74155,-2.62282 9.61593,-0.0178 16.22475,0.42249 18.41216,1.22671 1.87668,0.68998 3.57795,1.08871 3.78059,0.88607 0.54548,-0.54547 -50.97872,-49.06623 -67.19275,-63.27597 -22.12083,-19.38637 -27.11847,-22.86418 -35.16451,-24.47068 -9.0402,-1.805 -25.15275,-1.57198 -33.72791,0.48778 -9.06514,2.17746 -21.59736,8.16967 -29.3068,14.0129 -6.37248,4.82989 -15.59131,14.35836 -15.08527,15.59194 0.15647,0.38143 18.05949,17.11777 39.78449,37.19186 21.725,20.07409 43.55,40.37575 48.5,45.11481 4.95,4.73905 9.0377,8.63678 9.08378,8.66162 0.0461,0.0248 1.78285,-2.42181 3.85949,-5.437 z"
       id="path5232" />
    <path
       style="display:inline;fill:#f2fafd;fill-opacity:1"
       d="m 281.33257,265.44437 c 7.79209,-3.05559 15.51743,-6.17094 17.16743,-6.92299 l 3,-1.36738 -4,0.52872 c -6.85383,0.90592 -15.65616,3.22946 -24.65155,6.50722 -7.82614,2.8517 -8.54259,3.32695 -7.50946,4.98127 0.62816,1.00583 1.29601,1.82879 1.48413,1.82879 0.18811,0 6.71737,-2.50003 14.50945,-5.55563 z"
       id="path5230" />
    <path
       style="display:inline;fill:#584ea4;fill-opacity:1"
       d="M 310.80261,267.37864 C 336.93969,256.17788 363.89185,247.14145 400,237.47285 c 9.625,-2.57727 17.88618,-4.91964 18.35817,-5.20527 1.46674,-0.8876 -27.15238,-28.96775 -56.32836,-55.26758 -5.18626,-4.675 -10.13003,-9.175 -10.98615,-10 -0.85612,-0.825 -6.57098,-5.8875 -12.69968,-11.25 -9.37637,-8.20414 -11.67432,-9.74757 -14.49354,-9.73469 -6.991,0.0319 -6.3916,1.254 5.85813,11.94349 6.48529,5.65927 22.36643,20.26731 35.29143,32.46232 12.925,12.19501 26.0875,24.5794 29.25,27.52087 6.15774,5.72737 6.87485,7.05801 3.80369,7.05801 -3.20015,0 -27.80471,6.65104 -38.77259,10.4809 -13.07062,4.56412 -22.74413,8.72286 -38.03933,16.35346 -6.74202,3.36353 -16.86702,7.63111 -22.5,9.48352 -12.48648,4.10619 -28.73586,10.88636 -28.73927,11.99166 -10e-4,0.44525 1.62214,2.75314 3.60781,5.12863 l 3.61031,4.31909 11.44231,-5.39718 c 6.29326,-2.96845 16.25612,-7.4601 22.13968,-9.98144 z"
       id="path5228" />
    <path
       style="display:inline;fill:#f2fafd;fill-opacity:1"
       d="m 235.14992,288.88775 c 4.59254,-2.85851 9.39052,-5.83133 10.66217,-6.60626 2.29028,-1.39567 2.53799,-3.33146 0.51268,-4.00657 -1.17928,-0.39309 -14.69573,9.4678 -20.82477,15.19266 -4.39294,4.10326 -4.00374,3.91854 9.64992,-4.57983 z"
       id="path5226" />
    <path
       style="display:inline;fill:#f2fafd;fill-opacity:1"
       d="m 238.73665,280.34923 c 17.86619,-12.77682 37.38152,-21.1026 56.85567,-24.25619 10.25546,-1.66074 10.6685,-1.81598 6.90768,-2.59616 -5.99279,-1.2432 -22.69271,0.96604 -33.14598,4.3849 -17.9077,5.85692 -31.85299,14.40914 -42.83153,26.26727 C 221.37994,289.70362 216,297.06324 216,298.54356 c 0,0.32082 3.14399,-2.23159 6.98665,-5.67201 3.84266,-3.44041 10.93016,-9.07546 15.75,-12.52232 z"
       id="path5224" />
    <path
       style="display:inline;fill:#ef5148;fill-opacity:1"
       d="m 272,295.91586 c 0,-2.31274 2.34998,-3.03959 7.32947,-2.26702 4.00975,0.62211 4.10984,0.57389 2.59637,-1.25089 -10.45361,-12.60381 -13.70506,-16.46088 -16.59488,-19.68585 l -3.39424,-3.7879 -6.94639,3.65022 c -8.16096,4.28846 -8.65689,2.52293 5.11347,18.20419 8.47131,9.64687 9.32848,10.35069 10.55802,8.6692 0.736,-1.00654 1.33818,-2.59592 1.33818,-3.53195 z"
       id="path5222" />
    <path
       style="display:inline;fill:#f2fafd;fill-opacity:1"
       d="m 214.91616,296.02446 c 4.86686,-8.19214 13.15173,-17.42084 21.1962,-23.61092 16.17429,-12.44583 41.76651,-21.27443 62.21,-21.46072 l 5.17764,-0.0472 -6.10865,-5.70282 c -3.35976,-3.13655 -20.68476,-19.16981 -38.5,-35.62946 -17.81524,-16.45965 -36.04887,-33.44715 -40.51916,-37.75 L 210.24437,164 l -5.87218,0.008 c -26.24205,0.0338 -58.60442,15.19072 -75.57326,35.39483 -3.18571,3.7931 -7.16635,9.64179 -8.84585,12.99709 l -3.05365,6.10053 2.80029,2.36805 c 1.54015,1.30243 5.72528,5.1432 9.30028,8.53503 C 141.37381,241.14292 209.97163,303 210.61698,303 c 0.0853,0 2.01993,-3.13899 4.29918,-6.97554 z"
       id="path5212" />
    <path
       style="display:inline;fill:#5e4bac;fill-opacity:1"
       d="m 220.5,317.51452 c 7.6648,-5.57582 26.52791,-17.84783 33.2423,-21.62685 2.33326,-1.31322 4.24576,-2.73522 4.25,-3.16001 0.004,-0.42479 -1.83701,-2.77363 -4.09167,-5.21963 l -4.09936,-4.44729 -4.11996,2.10184 c -2.26597,1.15601 -5.25875,2.86581 -6.65063,3.79954 -1.39187,0.93373 -8.06689,5.40864 -14.83338,9.94424 l -12.30269,8.24655 -5.20097,-4.44333 c -2.86053,-2.44383 -10.59932,-9.30331 -17.1973,-15.2433 C 182.89835,281.5263 173.9355,273.47889 169.5789,269.58315 165.22229,265.68742 153.80081,255.3 144.19783,246.5 c -9.60298,-8.8 -17.98679,-16.12832 -18.63068,-16.28515 -1.51635,-0.36934 -17.74276,11.69199 -17.10902,12.7174 0.26475,0.42837 7.35747,6.33052 15.76161,13.11589 8.40414,6.78537 20.90526,16.87603 27.78026,22.42368 29.63342,23.91215 58.9501,45.67256 60.37481,44.81342 0.61886,-0.37318 4.27519,-2.97001 8.12519,-5.77072 z"
       id="path5210" />
    <path
       style="display:inline;fill:#000000;fill-opacity:1"
       d="M 205.40536,337.57445 C 196.95055,333.89363 173.91649,317.56498 147.5,296.52583 125.86765,279.29696 95.746458,254.10366 93.2789,251.17542 c -5.027202,-5.96576 -3.820145,-10.64958 5.651647,-21.93041 5.002093,-5.95745 5.825533,-7.54305 6.383713,-12.29236 0.372,-3.16519 2.18802,-8.599 4.32888,-12.95265 6.89478,-14.02123 29.14174,-33.37636 50.35686,-43.8111 l 7.5,-3.6889 0.0318,-10 c 0.0364,-11.45826 1.20022,-14.72573 8.63754,-24.25063 8.11214,-10.38913 24.09608,-17.23338 36.83067,-15.77074 6.31305,0.72509 13.79447,2.93875 19.32957,5.71937 l 3.82956,1.92383 -0.66739,-5.34166 c -0.55079,-4.4084 -0.33595,-5.751 1.2297,-7.68449 1.73761,-2.145855 2.85899,-2.385155 13.33783,-2.846268 L 261.5,97.745973 260.61857,85.033347 c -0.70528,-10.172203 -0.60536,-13.276244 0.5,-15.533051 1.89208,-3.863006 5.83044,-6.568037 11.02327,-7.57124 6.23938,-1.205387 139.23909,-1.115234 164.8543,0.111746 32.43194,1.553504 32.32894,1.458767 32.83165,30.199416 0.31711,18.130112 0.24779,18.914942 -2.1292,24.106962 -2.40158,5.24575 -7.01318,9.75901 -11.2969,11.056 -1.915,0.57981 -2.15485,1.61646 -2.74545,11.86606 -1.14581,19.88483 -1.02859,20.76624 3.24961,24.43527 l 3.73656,3.20451 4.84827,-2.45451 c 16.16067,-8.18157 34.84069,4.47761 31.27526,21.19479 -0.55286,2.5922 -4.67963,11.94405 -9.1706,20.78189 -24.0703,47.36829 -58.64829,95.13088 -72.07962,99.56362 -7.85672,2.59295 -17.03541,-4.09491 -20.10321,-14.64777 -2.0058,-6.89972 -0.95414,-17.42059 2.97922,-29.80415 1.39006,-4.37641 2.38106,-8.10344 2.20221,-8.28229 -0.7614,-0.76139 -20.03116,4.14013 -31.09394,7.90916 -23.94402,8.15759 -45.13507,17.36346 -58.52014,25.42246 -6.73784,4.05678 -7.86672,5.19624 -10.85172,10.9535 -3.86878,7.46184 -8.32217,11.71327 -16.08251,15.35317 -4.92436,2.30971 -6.83396,2.60912 -17.04563,2.67259 l -11.5,0.0715 -12,7.3261 c -14.80511,9.03864 -29.00984,16.0438 -32.42742,15.9918 -1.41492,-0.0215 -3.96517,-0.64541 -5.66722,-1.38641 z m 17.45159,-5.44215 c 4.24167,-2.13881 13.6993,-7.53017 21.01694,-11.9808 l 13.30481,-8.09206 5.07577,1.08855 c 14.85037,3.18484 29.62433,-4.1118 36.74535,-18.14799 2.42537,-4.78062 3.81774,-6.11926 10.64526,-10.23451 15.4047,-9.28509 47.43571,-22.56469 70.81462,-29.35875 10.88823,-3.16419 23.5403,-5.42463 23.5403,-4.20575 0,0.26725 -0.91539,3.14386 -2.0342,6.39246 -7.57312,21.98942 -6.77274,36.91188 2.3336,43.50847 7.64838,5.54046 13.47611,3.48591 24.62548,-8.68163 16.93992,-18.48688 47.00128,-65.44078 61.09107,-95.42029 3.74616,-7.97089 4.46637,-10.47828 4.47443,-15.57784 0.008,-5.1664 -0.42286,-6.64485 -2.87429,-9.85885 -5.73872,-7.52385 -16.20561,-9.62893 -25.19661,-5.0675 -2.70571,1.3727 -5.18313,2.4977 -5.50537,2.5 -0.32224,0.002 -2.68474,-1.63101 -5.25,-3.62958 L 451,161.73245 l 0.0153,-16.61622 c 0.008,-9.13893 0.34592,-17.11808 0.75,-17.73145 0.40408,-0.61337 1.85969,-1.45991 3.23469,-1.88119 4.245,-1.30063 7.94697,-4.4876 10.26597,-8.8378 1.99994,-3.7517 2.2507,-5.85564 2.5226,-21.16579 0.41166,-23.179361 -1.37571,-28.383957 -10.28857,-29.958961 -8.80818,-1.556506 -64.54616,-2.644365 -121,-2.3616 -61.65909,0.308836 -64.14602,0.393715 -67.99211,2.320561 -5.80009,2.905779 -6.70959,5.328403 -6.00675,16 0.32602,4.95 0.84552,11.069034 1.15446,13.597854 l 0.5617,4.597855 -12.2195,0.562991 c -6.72072,0.30964 -12.68844,1.03194 -13.26159,1.60509 -0.57316,0.57316 -0.94951,4.21328 -0.83634,8.08916 0.11318,3.87588 -0.0558,7.04705 -0.37557,7.04705 -0.31973,0 -3.32835,-1.38669 -6.68581,-3.08153 -17.45465,-8.81108 -35.89699,-6.54244 -49.21609,6.05421 -2.95477,2.7945 -6.87952,7.88136 -8.72166,11.30412 -2.93622,5.45559 -3.35252,7.1483 -3.37505,13.7232 -0.0141,4.125 0.32718,8.46538 0.75846,9.64528 0.70437,1.927 -0.21139,2.67737 -9,7.37462 -20.53126,10.97333 -37.59008,24.51815 -45.68891,36.2773 C 111.39889,204.3901 107,215.53494 107,220.07371 c 0,2.20367 -1.83835,5.25525 -7.038394,11.68339 -7.886343,9.74888 -8.900414,12.16115 -6.592809,15.683 3.152417,4.8112 49.634223,43.55205 76.131203,63.45253 25.68093,19.28758 37.97191,26.66299 42.81815,25.69374 1.55467,-0.31093 6.29713,-2.31527 10.5388,-4.45407 z m -18.01483,-9.89072 c -17.55318,-12.50097 -98.70671,-76.59543 -100.35165,-79.25699 -0.31521,-0.51003 3.72048,-4.11236 8.96821,-8.00517 5.24772,-3.89281 9.54132,-7.33205 9.54132,-7.64276 0,-0.31071 -1.86561,-2.2205 -4.1458,-4.244 -4.07231,-3.61386 -4.12453,-3.74351 -2.94608,-7.31425 1.98171,-6.00467 8.933,-15.84575 16.48054,-23.33187 C 149.51872,175.45588 175.37317,163.75553 199,162.30178 l 9.5,-0.58453 8,-7.63969 c 11.35141,-10.84015 20.99178,-17.05568 31.17793,-20.10163 l 4.17793,-1.24932 -0.17793,-11.08462 c -0.14737,-9.18062 0.0797,-11.1225 1.32207,-11.30513 0.825,-0.12128 5.40834,-0.50966 10.18519,-0.86306 l 8.6852,-0.64254 0.3148,-16.834938 c 0.17315,-9.259215 0.62553,-17.144472 1.00531,-17.522793 1.64054,-1.634266 51.75068,-2.614107 102.3095,-2.000533 58.84544,0.714138 78.94236,1.568461 80.80648,3.435095 1.65163,1.653867 1.5024,32.714099 -0.17221,35.841909 -1.06865,1.99601 -1.97536,2.25 -8.03215,2.25 h -6.82752 l -0.48218,22.54488 c -0.33513,15.669 -0.84943,22.91243 -1.68631,23.75 -0.88734,0.88807 -12.81327,1.33666 -45.33069,1.70512 l -44.12656,0.5 9.42557,8.41626 c 18.14081,16.19825 49.26895,45.63988 56.6183,53.55074 6.38748,6.87551 7.19609,8.14113 5.83657,9.13523 -0.86799,0.63469 -7.07967,2.60356 -13.80373,4.37526 -47.60715,12.54384 -81.65241,24.47035 -114.53386,40.12275 l -14.30829,6.81111 4.05829,5.13412 c 2.23206,2.82377 4.05829,5.60169 4.05829,6.17316 0,0.8795 -5.44234,0.62686 -11.32757,-0.52584 -0.54137,-0.10603 -1.66814,1.94471 -2.50394,4.55721 -0.83579,2.6125 -1.91948,4.75 -2.40819,4.75 -0.48872,0 -3.00651,-2.30335 -5.5951,-5.11856 l -4.70653,-5.11856 -7.47934,4.45013 c -12.13461,7.21998 -24.94442,15.69433 -33.17029,21.94385 -4.23003,3.21373 -7.83003,5.83935 -8,5.83472 -0.16997,-0.005 -3.30508,-2.14213 -6.96692,-4.75 z M 220.5,317.51452 c 7.6648,-5.57582 26.52791,-17.84783 33.2423,-21.62685 2.33326,-1.31322 4.24576,-2.73522 4.25,-3.16001 0.004,-0.42479 -1.83701,-2.77363 -4.09167,-5.21963 l -4.09936,-4.44729 -4.11996,2.10184 c -2.26597,1.15601 -5.25875,2.86581 -6.65063,3.79954 -1.39187,0.93373 -8.06689,5.40864 -14.83338,9.94424 l -12.30269,8.24655 -5.20097,-4.44333 c -2.86053,-2.44383 -10.59932,-9.30331 -17.1973,-15.2433 C 182.89835,281.5263 173.9355,273.47889 169.5789,269.58315 165.22229,265.68742 153.80081,255.3 144.19783,246.5 c -9.60298,-8.8 -17.98679,-16.12832 -18.63068,-16.28515 -1.51635,-0.36934 -17.74276,11.69199 -17.10902,12.7174 0.26475,0.42837 7.35747,6.33052 15.76161,13.11589 8.40414,6.78537 20.90526,16.87603 27.78026,22.42368 29.63342,23.91215 58.9501,45.67256 60.37481,44.81342 0.61886,-0.37318 4.27519,-2.97001 8.12519,-5.77072 z m -5.58384,-21.49006 c 4.86686,-8.19214 13.15173,-17.42084 21.1962,-23.61092 16.17429,-12.44583 41.76651,-21.27443 62.21,-21.46072 l 5.17764,-0.0472 -6.10865,-5.70282 c -3.35976,-3.13655 -20.68476,-19.16981 -38.5,-35.62946 -17.81524,-16.45965 -36.04887,-33.44715 -40.51916,-37.75 L 210.24437,164 l -5.87218,0.008 c -26.24205,0.0338 -58.60442,15.19072 -75.57326,35.39483 -3.18571,3.7931 -7.16635,9.64179 -8.84585,12.99709 l -3.05365,6.10053 2.80029,2.36805 c 1.54015,1.30243 5.72528,5.1432 9.30028,8.53503 C 141.37381,241.14292 209.97163,303 210.61698,303 c 0.0853,0 2.01993,-3.13899 4.29918,-6.97554 z M 207,265.07673 c 0,-1.2745 4.6344,-6.68101 9.8789,-11.52478 C 226.0594,245.07294 241.9561,236 247.63168,236 c 2.06959,0 3.2352,0.40637 2.86832,1 -0.33992,0.55 -1.60398,1.00036 -2.80902,1.00079 -2.99804,0.001 -13.35009,5.0141 -20.79615,10.07063 C 220.68307,252.28974 209,263.39894 209,265.08725 209,265.58926 208.55,266 208,266 c -0.55,0 -1,-0.41547 -1,-0.92327 z m -18.3329,-12.80636 c -1.45866,-2.36016 14.44894,-18.65473 23.61496,-24.18941 C 222.25598,222.05845 238.0645,216 243.80534,216 c 4.16353,0 1.31245,1.57355 -6.15983,3.39968 -17.67056,4.31848 -34.01841,15.19728 -45.78589,30.46856 -1.42749,1.85253 -2.86413,2.93349 -3.19252,2.40213 z M 169,235.01874 c 0,-2.02057 13.28988,-14.96934 20.42887,-19.90452 9.94433,-6.87451 24.82275,-13.83113 31.32113,-14.64466 7.40254,-0.92671 6.60602,0.92775 -1,2.32821 -12.69201,2.33692 -32.64483,14.63066 -43.84578,27.01517 -5.50971,6.09188 -6.90422,7.14335 -6.90422,5.2058 z m -20,-19.17577 c 0,-1.55357 7.96059,-9.53457 15,-15.03846 C 173.97771,193.00326 194.89427,183 201.22879,183 c 3.41668,0 0.92962,1.46727 -6.72879,3.96972 -13.72076,4.48339 -26.67953,12.41086 -38.25,23.39926 -3.9875,3.7869 -7.25,6.2502 -7.25,5.47399 z m 123,80.07289 c 0,-2.31274 2.34998,-3.03959 7.32947,-2.26702 4.00975,0.62211 4.10984,0.57389 2.59637,-1.25089 -10.45361,-12.60381 -13.70506,-16.46088 -16.59488,-19.68585 l -3.39424,-3.7879 -6.94639,3.65022 c -8.16096,4.28846 -8.65689,2.52293 5.11347,18.20419 8.47131,9.64687 9.32848,10.35069 10.55802,8.6692 0.736,-1.00654 1.33818,-2.59592 1.33818,-3.53195 z m -33.26335,-15.56663 c 17.86619,-12.77682 37.38152,-21.1026 56.85567,-24.25619 10.25546,-1.66074 10.6685,-1.81598 6.90768,-2.59616 -5.99279,-1.2432 -22.69271,0.96604 -33.14598,4.3849 -17.9077,5.85692 -31.85299,14.40914 -42.83153,26.26727 C 221.37994,289.70362 216,297.06324 216,298.54356 c 0,0.32082 3.14399,-2.23159 6.98665,-5.67201 3.84266,-3.44041 10.93016,-9.07546 15.75,-12.52232 z m -3.58673,8.53852 c 4.59254,-2.85851 9.39052,-5.83133 10.66217,-6.60626 2.29028,-1.39567 2.53799,-3.33146 0.51268,-4.00657 -1.17928,-0.39309 -14.69573,9.4678 -20.82477,15.19266 -4.39294,4.10326 -4.00374,3.91854 9.64992,-4.57983 z m 75.65269,-21.50911 C 336.93969,256.17788 363.89185,247.14145 400,237.47285 c 9.625,-2.57727 17.88618,-4.91964 18.35817,-5.20527 1.46674,-0.8876 -27.15238,-28.96775 -56.32836,-55.26758 -5.18626,-4.675 -10.13003,-9.175 -10.98615,-10 -0.85612,-0.825 -6.57098,-5.8875 -12.69968,-11.25 -9.37637,-8.20414 -11.67432,-9.74757 -14.49354,-9.73469 -6.991,0.0319 -6.3916,1.254 5.85813,11.94349 6.48529,5.65927 22.36643,20.26731 35.29143,32.46232 12.925,12.19501 26.0875,24.5794 29.25,27.52087 6.15774,5.72737 6.87485,7.05801 3.80369,7.05801 -3.20015,0 -27.80471,6.65104 -38.77259,10.4809 -13.07062,4.56412 -22.74413,8.72286 -38.03933,16.35346 -6.74202,3.36353 -16.86702,7.63111 -22.5,9.48352 -12.48648,4.10619 -28.73586,10.88636 -28.73927,11.99166 -10e-4,0.44525 1.62214,2.75314 3.60781,5.12863 l 3.61031,4.31909 11.44231,-5.39718 c 6.29326,-2.96845 16.25612,-7.4601 22.13968,-9.98144 z m -29.47004,-1.93427 c 7.79209,-3.05559 15.51743,-6.17094 17.16743,-6.92299 l 3,-1.36738 -4,0.52872 c -6.85383,0.90592 -15.65616,3.22946 -24.65155,6.50722 -7.82614,2.8517 -8.54259,3.32695 -7.50946,4.98127 0.62816,1.00583 1.29601,1.82879 1.48413,1.82879 0.18811,0 6.71737,-2.50003 14.50945,-5.55563 z m 32.1107,-16.92653 c 7.96339,-11.56248 21.49176,-22.04619 35.31518,-27.36722 6.16198,-2.37193 8.0311,-2.59741 21.74155,-2.62282 9.61593,-0.0178 16.22475,0.42249 18.41216,1.22671 1.87668,0.68998 3.57795,1.08871 3.78059,0.88607 0.54548,-0.54547 -50.97872,-49.06623 -67.19275,-63.27597 -22.12083,-19.38637 -27.11847,-22.86418 -35.16451,-24.47068 -9.0402,-1.805 -25.15275,-1.57198 -33.72791,0.48778 -9.06514,2.17746 -21.59736,8.16967 -29.3068,14.0129 -6.37248,4.82989 -15.59131,14.35836 -15.08527,15.59194 0.15647,0.38143 18.05949,17.11777 39.78449,37.19186 21.725,20.07409 43.55,40.37575 48.5,45.11481 4.95,4.73905 9.0377,8.63678 9.08378,8.66162 0.0461,0.0248 1.78285,-2.42181 3.85949,-5.437 z M 303,222.15004 c 0,-1.61558 5.83277,-8.89478 8.84736,-11.04135 7.85776,-5.59522 20.94394,-10.20216 32.90264,-11.58326 9.70484,-1.1208 7.53544,0.99167 -2.45343,2.38904 -15.70755,2.19738 -29.39476,8.86032 -35.07542,17.07475 C 304.61552,222.75705 303,223.96676 303,222.15004 Z m -24,-18.05737 c 0,-1.3042 9.62935,-9.80407 15.5,-13.68192 2.75,-1.81651 8.4287,-4.44344 12.61934,-5.83762 C 315.84902,181.66886 329,180.03601 329,181.8564 c 0,0.65174 -1.61287,1.15107 -3.75,1.16096 -12.37823,0.0573 -27.96529,6.54174 -38.43177,15.98813 -6.6685,6.01856 -7.81823,6.76667 -7.81823,5.08718 z m -15,-24.14226 c 5.59737,-4.93105 18.13815,-11.15034 27.98763,-13.87976 7.87814,-2.18315 17.58908,-2.8128 16.51237,-1.07065 -0.33992,0.55 -2.43902,1 -4.66467,1 -9.3381,0 -27.65977,7.08269 -37.09398,14.33959 -6.36365,4.89499 -8.40982,4.60451 -2.74135,-0.38918 z m -24,-11.93579 c 0,-1.63792 10.85257,-9.6247 17.44766,-12.84034 3.40248,-1.65899 8.85618,-3.73923 12.11934,-4.62276 7.42376,-2.01007 22.91024,-3.20638 23.75764,-1.83526 0.38094,0.61637 -2.88586,1.2115 -8.6053,1.56767 -15.00787,0.93459 -28.21231,5.98117 -38.85812,14.85111 -4.83098,4.0251 -5.86122,4.53125 -5.86122,2.87958 z m 85.5,79.12351 c 17.98385,-8.69312 41.95589,-17.53327 57.5,-21.20425 8.72259,-2.05997 8.48488,-3.23806 -0.5,-2.478 -14.31034,1.21056 -31.77161,6.17613 -45,12.79695 -6.6031,3.30485 -19.66873,12.0355 -21.70592,14.50422 -1.5187,1.84039 -1.82183,1.95341 9.70592,-3.61892 z m 5.5,-9.53137 c 13.17186,-7.83898 31.71866,-14.10492 45.30071,-15.30463 9.86129,-0.87105 6.82995,-2.39191 -4.90082,-2.4588 -18.92501,-0.10792 -35.23647,6.77702 -47.89989,20.21817 -2.75,2.91889 -3.875,4.56495 -2.5,3.65791 1.375,-0.90705 5.875,-3.65774 10,-6.11265 z M 437.1978,158.37775 C 437.63901,158.10507 438,148.04692 438,136.0263 v -21.85566 l -7.25,-0.59604 C 415.19275,112.29561 364.89229,111 330.79428,111 H 295 v 10.5 c 0,8.45428 0.27952,10.5 1.43471,10.5 0.78908,0 5.20832,2.87935 9.82052,6.39854 8.29092,6.32614 8.43595,6.38887 12.8153,5.54356 2.43621,-0.47025 5.32947,-0.8624 6.42947,-0.87145 1.1,-0.009 6.49955,3.86428 11.999,8.60741 l 9.999,8.62386 44.44881,-0.71419 c 24.44684,-0.39281 44.80979,-0.9373 45.25099,-1.20998 z M 359.69385,145.36052 C 358.50614,144.17281 360.10109,143 362.90403,143 c 3.97781,0 6.62302,-3.14669 5.07567,-6.03792 -1.46965,-2.74607 -1.52503,-8.07461 -0.11137,-10.71606 2.32148,-4.33771 8.18666,-2.83264 8.08778,2.07541 -0.0241,1.19821 -0.68546,3.97857 -1.46959,6.17857 -1.28907,3.61671 -1.26091,4.15606 0.2939,5.6286 2.76578,2.61946 6.71992,3.09658 9.17659,1.1073 1.8989,-1.53764 2.05163,-2.24227 1.25479,-5.78877 -1.41895,-6.31529 0.70669,-10.39806 5.43121,-10.43182 3.76264,-0.0269 4.40796,4.55343 1.42551,10.11802 -2.2957,4.28329 -1.33765,5.86667 3.54969,5.86667 5.79209,0 6.23412,-0.537 5.65937,-6.87539 -0.41653,-4.59356 -0.17362,-6.08571 1.21709,-7.47642 2.13582,-2.13582 3.62361,-1.73063 5.25355,1.43078 1.26513,2.45385 0.79448,7.62101 -0.85357,9.37103 -1.39868,1.48522 -1.08566,2.14194 1.60535,3.36805 1.87083,0.8524 3.13023,0.85192 5.00423,-0.002 3.14471,-1.43283 4.65314,-0.13558 2.05307,1.76564 -2.46448,1.80207 -5.90563,1.80659 -9.37538,0.0123 -2.33581,-1.2079 -2.98957,-1.2079 -4.64146,0 -2.43142,1.77789 -5.69369,1.78656 -9.90649,0.0263 -2.96164,-1.23745 -3.55071,-1.18823 -5.71789,0.47777 -3.15517,2.42551 -6.55485,2.37928 -11.28028,-0.1534 -3.37932,-1.81121 -3.97118,-1.87592 -4.98519,-0.54503 -1.91701,2.51609 -8.45676,4.46076 -9.95676,2.96076 z m 46.29084,-14.19385 c 0.0102,-2.22675 -0.39966,-3.19517 -1.23469,-2.91714 -1.5941,0.53077 -2.10971,3.18115 -1.26985,6.52741 0.51746,2.06171 0.8521,2.31078 1.57325,1.17091 0.50378,-0.79632 0.92287,-2.94785 0.93129,-4.78118 z M 372.36971,133.75 c 0.94552,-3.52818 0.73244,-7.75 -0.39115,-7.75 -1.66395,0 -3.28332,4.6496 -2.58642,7.42626 0.79651,3.17356 2.17372,3.3233 2.97757,0.32374 z m 18.57407,-2.55397 c 1.02371,-3.56946 -0.16877,-5.08412 -2.48758,-3.15968 -1.48975,1.23638 -2.00206,6.08446 -0.77287,7.31365 1.00326,1.00326 2.2294,-0.5589 3.26045,-4.15397 z M 272.25,129.31938 283,128.70038 v -8.93215 -8.93215 l -12.25,0.64081 c -6.7375,0.35245 -13.54446,0.88759 -15.12659,1.18922 -2.82797,0.53914 -2.86614,0.63533 -2.25869,5.69115 0.33984,2.82851 0.62181,6.88912 0.62659,9.02358 l 0.009,3.88084 3.75,-0.66165 c 2.0625,-0.36391 8.5875,-0.9402 14.5,-1.28065 z M 292.36971,128.75 c 0.33164,-1.2375 0.60913,-5.76466 0.61664,-10.06037 l 0.0136,-7.81036 -3.75,0.31036 -3.75,0.31037 -0.2866,9.18005 -0.2866,9.18004 2.7866,0.42012 c 1.53263,0.23107 3.07162,0.48755 3.41997,0.56996 0.34835,0.0824 0.90471,-0.86267 1.23634,-2.10017 z m 162.12998,-18.74904 c 0.92505,-2.91454 1.01839,-31.816217 0.10571,-32.728898 -0.4098,-0.409794 -5.71157,-0.915072 -11.78172,-1.12284 l -11.03664,-0.377759 0.52682,17.864268 c 0.28975,9.825349 0.56267,17.922979 0.60648,17.994729 0.0438,0.0717 4.76764,0.20535 10.4974,0.29687 9.76734,0.15603 10.4592,0.0358 11.08195,-1.92637 z m -31.91639,-3.70788 c 0.61578,-4.10633 -0.065,-30.115151 -0.80739,-30.846333 C 421.62416,75.297291 398.55,74.997392 370.5,74.780305 c -49.1519,-0.380399 -93.94126,0.327618 -95.11722,1.503585 -0.31118,0.311182 -0.81378,7.712156 -1.11689,16.44661 l -0.5511,15.88083 52.39261,0.24415 c 43.09801,0.20084 74.89791,0.87774 93.08133,1.98133 2.47076,0.14996 2.74594,-0.21838 3.39457,-4.54373 z M 300,96.118359 c -2.86274,-0.505772 -3.55643,-1.106816 -3.80993,-3.301101 -0.57138,-4.945813 1.17784,-5.199365 38.8944,-5.637794 30.5847,-0.355525 34.95057,-0.212702 37.75,1.234938 7.29582,3.772812 2.36014,6.219818 -15.33447,7.602512 -13.10267,1.02387 -51.89159,1.092304 -57.5,0.101445 z m 58.72082,-2.069911 c 5.62145,-0.547633 11.42997,-1.299174 12.90782,-1.67009 2.53113,-0.635274 2.57974,-0.752817 0.83805,-2.026375 -1.46287,-1.069676 -7.91672,-1.326047 -30.90782,-1.227773 -35.11719,0.150107 -42.91133,0.699025 -43.35884,3.053633 -0.22543,1.1861 0.5045,1.78697 2.49054,2.050189 6.53521,0.86614 48.63321,0.735861 58.03025,-0.179584 z m 71.793,9.701552 c -0.062,-3.9875 -0.20293,-12.11739 -0.31324,-18.066422 L 430,74.867155 427.25,75.183578 424.5,75.5 424.71315,93 c 0.11723,9.625 0.22973,17.6125 0.25,17.75 0.0203,0.1375 1.30281,0.25 2.8501,0.25 h 2.81325 z M 407.4316,290.5835 c -1.17845,-4.69531 0.0954,-13.9109 2.70694,-19.5835 4.08719,-8.87786 58.89899,-95.97848 61.45072,-97.65044 1.57942,-1.03488 3.34467,-1.30335 5.48249,-0.8338 3.77357,0.82882 10.92825,7.01278 10.92825,9.44557 0,0.95073 -1.84263,4.57951 -4.09474,8.06395 -4.67468,7.23264 -10.75155,17.16271 -36.65589,59.89848 -10.14276,16.73306 -19.63569,31.92994 -21.09538,33.77084 -3.6257,4.57255 -9.25126,8.13741 -14.05301,8.90524 -3.72374,0.59545 -4.04913,0.45494 -4.66938,-2.01634 z m 13.33309,-5.03028 c 3.1273,-2.88574 3.55391,-3.7403 2.62087,-5.25 -0.61295,-0.99177 -2.14689,-1.81323 -3.40877,-1.82547 -1.3945,-0.0135 -2.68418,-0.89596 -3.28837,-2.25 -1.53754,-3.44575 -5.24907,-2.92682 -6.59059,0.92147 -1.75902,5.04592 -1.42382,8.85078 0.77973,8.85078 1.03265,0 2.43775,0.675 3.12244,1.5 1.78084,2.14578 2.57822,1.9163 6.76469,-1.94678 z M 434.713,265.75 c 4.48027,-7.2875 10.85586,-17.75 14.16798,-23.25 3.31212,-5.5 7.78325,-12.925 9.93585,-16.5 2.15259,-3.575 6.44941,-10.68 9.54849,-15.78888 3.09907,-5.10888 5.63468,-9.75888 5.63468,-10.33333 0,-2.16824 -2.59751,-0.0562 -5.16823,4.20222 -1.46752,2.43099 -12.06582,19.76261 -23.55176,38.5147 C 426.56398,273.15073 423.44485,279 425.86686,279 c 0.3851,0 4.36586,-5.9625 8.84614,-13.25 z m -1.43097,-8.50877 C 438.99144,248.03355 446.91989,235.1 450.90081,228.5 c 3.98091,-6.6 9.96533,-16.43727 13.29869,-21.86059 4.78645,-7.78748 5.77051,-10.04436 4.68058,-10.73469 -0.75904,-0.48075 -1.62427,-0.88099 -1.92272,-0.88941 -0.29845,-0.008 -3.35652,4.59719 -6.7957,10.23469 -6.5841,10.79264 -22.32828,36.21304 -34.70784,56.03893 -7.09708,11.36599 -8.55856,15.90786 -4.40322,13.68399 1.01788,-0.54475 6.52202,-8.52401 12.23143,-17.73169 z m -6.20212,-3.54334 c 5.81895,-9.45884 16.5481,-26.79374 23.84256,-38.522 7.29445,-11.72826 13.0154,-21.57135 12.71322,-21.87354 -0.30219,-0.30218 -1.15312,-0.31777 -1.89095,-0.0346 -1.20842,0.46371 -43.06483,66.62768 -47.11872,74.48229 -1.58797,3.07677 -1.58273,3.24722 0.0983,3.19789 1.19883,-0.0352 5.21268,-5.63904 12.35559,-17.25 z m 49.09495,-58.98719 c -2.21016,-2.66309 -11.29484,-6.99072 -12.38551,-5.90005 -0.70995,0.70995 0.5089,1.81353 3.90191,3.5329 2.7139,1.37524 5.53953,3.22961 6.27917,4.12082 0.89654,1.08026 1.67814,1.28706 2.34481,0.62039 0.66666,-0.66666 0.61987,-1.45802 -0.14038,-2.37406 z m 5.7771,-6.14088 c 3.89985,-5.66823 3.84081,-7.86336 -0.29635,-11.01893 -5.39892,-4.11795 -8.52731,-3.47278 -12.65561,2.60997 -2.01204,2.96459 -3.03307,5.31593 -2.40169,5.53084 0.60407,0.20561 3.52907,1.92258 6.5,3.81547 2.97093,1.8929 5.49257,3.45316 5.60365,3.46723 0.11108,0.0141 1.57358,-1.96798 3.25,-4.40458 z M 185.25,148.76125 c -6.7768,-1.9274 -9.49368,-3.77867 -5.5,-3.74767 3.24973,0.0252 13.60593,3.55421 14.01287,4.77503 0.50292,1.50877 0.33151,1.48809 -8.51287,-1.02736 z M 204.50743,142.75 c -0.40064,-1.1652 -3.50548,-13.78762 -4.91957,-20 -0.4383,-1.92556 -0.23086,-2.75 0.69196,-2.75 0.85763,0 2.10846,3.5799 3.5814,10.25 1.24491,5.6375 2.49074,11.0375 2.76851,12 0.56842,1.96958 -1.45323,2.44587 -2.1223,0.5 z m 11.82934,-1.87154 c 0.33415,-1.85815 0.90852,-6.42861 1.27637,-10.15657 0.61535,-6.23629 1.62909,-8.89432 2.66522,-6.9882 0.2291,0.42147 -0.0773,5.00404 -0.68091,10.18348 -0.74207,6.36768 -1.54607,9.56655 -2.48284,9.87847 -1.07162,0.35681 -1.24779,-0.30389 -0.77784,-2.91718 z"
       id="path5202"
       sodipodi:insensitive="true" />
  </g>
</svg>
