<?xml version="1.0" encoding="UTF-8" standalone="no"?>
<svg
   viewBox="0 0 192.78785 213.2732"
   height="213.27321"
   width="192.78786"
   xml:space="preserve"
   id="svg2"
   version="1.1"
   sodipodi:docname="13605-NP0EBN.svg"
   xmlns:inkscape="http://www.inkscape.org/namespaces/inkscape"
   xmlns:sodipodi="http://sodipodi.sourceforge.net/DTD/sodipodi-0.dtd"
   xmlns="http://www.w3.org/2000/svg"
   xmlns:svg="http://www.w3.org/2000/svg"
   xmlns:rdf="http://www.w3.org/1999/02/22-rdf-syntax-ns#"
   xmlns:cc="http://creativecommons.org/ns#"
   xmlns:dc="http://purl.org/dc/elements/1.1/"><sodipodi:namedview
     id="namedview18929"
     pagecolor="#ffffff"
     bordercolor="#000000"
     borderopacity="0.25"
     inkscape:showpageshadow="2"
     inkscape:pageopacity="0.0"
     inkscape:pagecheckerboard="0"
     inkscape:deskcolor="#d1d1d1"
     showgrid="false" /><metadata
     id="metadata8"><rdf:RDF><cc:Work
         rdf:about=""><dc:format>image/svg+xml</dc:format><dc:type
           rdf:resource="http://purl.org/dc/dcmitype/StillImage" /></cc:Work></rdf:RDF></metadata><defs
     id="defs6"><clipPath
       id="clipPath344"
       clipPathUnits="userSpaceOnUse"><path
         id="path342"
         d="m 372.948,267.576 h 60.979 V 135.431 h -60.979 z" /></clipPath><clipPath
       clipPathUnits="userSpaceOnUse"
       id="clipPath23013"><g
         id="g23017"
         style="stroke-width:1.33333"
         transform="matrix(0.75000002,0,0,-0.75000002,-420.0978,535.38214)"><path
           id="path23015"
           d="M 0,6e-5 H 1066.6666 V 1066.6667 H 0 Z"
           style="stroke-width:1.33333" /></g></clipPath><clipPath
       clipPathUnits="userSpaceOnUse"
       id="clipPath23019"><g
         id="g23023"
         style="stroke-width:1.33333"
         transform="matrix(0.75000002,0,0,-0.75000002,-414.7338,599.42875)"><path
           id="path23021"
           d="M 0,6e-5 H 1066.6666 V 1066.6667 H 0 Z"
           style="stroke-width:1.33333" /></g></clipPath><clipPath
       clipPathUnits="userSpaceOnUse"
       id="clipPath23025"><g
         id="g23029"
         style="stroke-width:1.33333"
         transform="matrix(0.75000002,0,0,-0.75000002,-465.2891,535.42375)"><path
           id="path23027"
           d="M 0,6e-5 H 1066.6666 V 1066.6667 H 0 Z"
           style="stroke-width:1.33333" /></g></clipPath><clipPath
       clipPathUnits="userSpaceOnUse"
       id="clipPath23031"><g
         id="g23035"
         style="stroke-width:1.33333"
         transform="matrix(0.75000002,0,0,-0.75000002,-456.7941,654.75785)"><path
           id="path23033"
           d="M 0,6e-5 H 1066.6666 V 1066.6667 H 0 Z"
           style="stroke-width:1.33333" /></g></clipPath><clipPath
       clipPathUnits="userSpaceOnUse"
       id="clipPath23037"><g
         id="g23041"
         style="stroke-width:1.33333"
         transform="matrix(0.75000002,0,0,-0.75000002,-456.7943,669.96095)"><path
           id="path23039"
           d="M 0,6e-5 H 1066.6666 V 1066.6667 H 0 Z"
           style="stroke-width:1.33333" /></g></clipPath><clipPath
       clipPathUnits="userSpaceOnUse"
       id="clipPath23043"><g
         id="g23047"
         style="stroke-width:1.33333"
         transform="matrix(0.75000002,0,0,-0.75000002,-399.0525,535.42375)"><path
           id="path23045"
           d="M 0,6e-5 H 1066.6666 V 1066.6667 H 0 Z"
           style="stroke-width:1.33333" /></g></clipPath><clipPath
       clipPathUnits="userSpaceOnUse"
       id="clipPath23049"><g
         id="g23053"
         style="stroke-width:1.33333"
         transform="matrix(0.75000002,0,0,-0.75000002,-465.2891,535.42375)"><path
           id="path23051"
           d="M 0,6e-5 H 1066.6666 V 1066.6667 H 0 Z"
           style="stroke-width:1.33333" /></g></clipPath><clipPath
       clipPathUnits="userSpaceOnUse"
       id="clipPath23055"><g
         id="g23059"
         style="stroke-width:1.33333"
         transform="matrix(0.75000002,0,0,-0.75000002,-385.9886,678.97364)"><path
           id="path23057"
           d="M 0,6e-5 H 1066.6666 V 1066.6667 H 0 Z"
           style="stroke-width:1.33333" /></g></clipPath><clipPath
       clipPathUnits="userSpaceOnUse"
       id="clipPath23061"><g
         id="g23065"
         style="stroke-width:1.33333"
         transform="matrix(0.75000002,0,0,-0.75000002,-350.1382,649.32415)"><path
           id="path23063"
           d="M 0,6e-5 H 1066.6666 V 1066.6667 H 0 Z"
           style="stroke-width:1.33333" /></g></clipPath><clipPath
       clipPathUnits="userSpaceOnUse"
       id="clipPath23067"><g
         id="g23071"
         style="stroke-width:1.33333"
         transform="matrix(0.75000002,0,0,-0.75000002,-350.1382,631.43804)"><path
           id="path23069"
           d="M 0,6e-5 H 1066.6666 V 1066.6667 H 0 Z"
           style="stroke-width:1.33333" /></g></clipPath><clipPath
       clipPathUnits="userSpaceOnUse"
       id="clipPath23073"><g
         id="g23077"
         style="stroke-width:1.33333"
         transform="matrix(0.75000002,0,0,-0.75000002,-350.1382,613.55195)"><path
           id="path23075"
           d="M 0,6e-5 H 1066.6666 V 1066.6667 H 0 Z"
           style="stroke-width:1.33333" /></g></clipPath><clipPath
       clipPathUnits="userSpaceOnUse"
       id="clipPath23079"><g
         id="g23083"
         style="stroke-width:1.33333"
         transform="matrix(0.75000002,0,0,-0.75000002,-350.1382,595.66585)"><path
           id="path23081"
           d="M 0,6e-5 H 1066.6666 V 1066.6667 H 0 Z"
           style="stroke-width:1.33333" /></g></clipPath><clipPath
       clipPathUnits="userSpaceOnUse"
       id="clipPath23085"><g
         id="g23089"
         style="stroke-width:1.33333"
         transform="matrix(0.75000002,0,0,-0.75000002,-350.1382,577.77985)"><path
           id="path23087"
           d="M 0,6e-5 H 1066.6666 V 1066.6667 H 0 Z"
           style="stroke-width:1.33333" /></g></clipPath><clipPath
       clipPathUnits="userSpaceOnUse"
       id="clipPath23091"><g
         id="g23095"
         style="stroke-width:1.33333"
         transform="matrix(0.75000002,0,0,-0.75000002,-350.1382,559.89374)"><path
           id="path23093"
           d="M 0,6e-5 H 1066.6666 V 1066.6667 H 0 Z"
           style="stroke-width:1.33333" /></g></clipPath><clipPath
       clipPathUnits="userSpaceOnUse"
       id="clipPath23097"><g
         id="g23101"
         style="stroke-width:1.33333"
         transform="matrix(0.75000002,0,0,-0.75000002,-350.1382,542.00764)"><path
           id="path23099"
           d="M 0,6e-5 H 1066.6666 V 1066.6667 H 0 Z"
           style="stroke-width:1.33333" /></g></clipPath><clipPath
       clipPathUnits="userSpaceOnUse"
       id="clipPath23103"><g
         id="g23107"
         style="stroke-width:1.33333"
         transform="matrix(0.75000002,0,0,-0.75000002,-425.7578,520.01935)"><path
           id="path23105"
           d="M 0,6e-5 H 1066.6666 V 1066.6667 H 0 Z"
           style="stroke-width:1.33333" /></g></clipPath><clipPath
       clipPathUnits="userSpaceOnUse"
       id="clipPath23109"><g
         id="g23113"
         style="stroke-width:1.33333"
         transform="matrix(0.75000002,0,0,-0.75000002,0,800.00005)"><path
           id="path23111"
           d="M 0,6e-5 H 1066.6666 V 1066.6667 H 0 Z"
           style="stroke-width:1.33333" /></g></clipPath><clipPath
       clipPathUnits="userSpaceOnUse"
       id="clipPath23115"><g
         id="g23119"
         style="stroke-width:1.33333"
         transform="matrix(0.75000002,0,0,-0.75000002,-350.2018,650.67984)"><path
           id="path23117"
           d="M 0,6e-5 H 1066.6666 V 1066.6667 H 0 Z"
           style="stroke-width:1.33333" /></g></clipPath><clipPath
       clipPathUnits="userSpaceOnUse"
       id="clipPath23121"><g
         id="g23125"
         style="stroke-width:1.33333"
         transform="matrix(0.75000002,0,0,-0.75000002,-350.2015,532.90825)"><path
           id="path23123"
           d="M 0,6e-5 H 1066.6666 V 1066.6667 H 0 Z"
           style="stroke-width:1.33333" /></g></clipPath></defs><g
     transform="matrix(1.3333333,0,0,-1.3333333,27.284421,17.185819)"
     id="g330"
     clip-path="url(#clipPath23121)"><path
       id="path332"
       style="fill:#faa73f;fill-opacity:1;fill-rule:nonzero;stroke:none"
       d="m 0,0 c -3.158,0 -5.728,-2.569 -5.728,-5.728 0,-3.158 2.57,-5.727 5.728,-5.727 3.158,0 5.728,2.569 5.728,5.727 C 5.728,-2.569 3.158,0 0,0 m 0,-17.886 c -3.158,0 -5.728,-2.569 -5.728,-5.727 0,-3.158 2.57,-5.728 5.728,-5.728 3.158,0 5.728,2.57 5.728,5.728 0,3.158 -2.57,5.727 -5.728,5.727 m 0,-17.886 c -3.158,0 -5.728,-2.57 -5.728,-5.728 0,-3.158 2.57,-5.728 5.728,-5.728 3.158,0 5.728,2.57 5.728,5.728 0,3.158 -2.57,5.728 -5.728,5.728 m 0,-17.886 c -3.158,0 -5.728,-2.57 -5.728,-5.728 0,-3.158 2.57,-5.727 5.728,-5.727 3.158,0 5.728,2.569 5.728,5.727 0,3.158 -2.57,5.728 -5.728,5.728 m 0,-17.887 c -3.158,0 -5.728,-2.569 -5.728,-5.727 0,-3.158 2.57,-5.727 5.728,-5.727 3.158,0 5.728,2.569 5.728,5.727 0,3.158 -2.57,5.727 -5.728,5.727 m 0,-17.886 c -3.158,0 -5.728,-2.569 -5.728,-5.727 0,-3.158 2.57,-5.728 5.728,-5.728 3.158,0 5.728,2.57 5.728,5.728 0,3.158 -2.57,5.727 -5.728,5.727 m 0,-17.885 c -3.158,0 -5.728,-2.57 -5.728,-5.728 0,-3.158 2.57,-5.727 5.728,-5.727 3.158,0 5.728,2.569 5.728,5.727 0,3.158 -2.57,5.728 -5.728,5.728 m -5.486,-23.345 c -3.953,0 -7.169,3.217 -7.169,7.17 V 4.719 c 0,3.953 3.216,7.17 7.169,7.17 h 81.043 c 3.953,0 7.169,-3.217 7.169,-7.17 v -128.21 c 0,-3.953 -3.216,-7.17 -7.169,-7.17 z" /></g><g
     transform="matrix(1.3333333,0,0,-1.3333333,27.284821,174.21461)"
     id="g334"
     clip-path="url(#clipPath23115)"><path
       id="path336"
       style="fill:#005639;fill-opacity:1;fill-rule:nonzero;stroke:none"
       d="m 0,0 c -2.611,0 -4.727,2.117 -4.727,4.727 0,2.611 2.116,4.728 4.727,4.728 2.611,0 4.727,-2.117 4.727,-4.728 C 4.727,2.117 2.611,0 0,0 m 0,17.886 c -2.611,0 -4.727,2.117 -4.727,4.728 0,2.61 2.116,4.727 4.727,4.727 2.611,0 4.727,-2.117 4.727,-4.727 0,-2.611 -2.116,-4.728 -4.727,-4.728 m 0,17.886 c -2.611,0 -4.727,2.117 -4.727,4.728 0,2.611 2.116,4.727 4.727,4.727 2.611,0 4.727,-2.116 4.727,-4.727 0,-2.611 -2.116,-4.728 -4.727,-4.728 m 0,17.886 c -2.611,0 -4.727,2.117 -4.727,4.728 0,2.611 2.116,4.727 4.727,4.727 2.611,0 4.727,-2.116 4.727,-4.727 0,-2.611 -2.116,-4.728 -4.727,-4.728 m 0,17.886 c -2.611,0 -4.727,2.117 -4.727,4.728 0,2.611 2.116,4.727 4.727,4.727 2.611,0 4.727,-2.116 4.727,-4.727 C 4.727,73.661 2.611,71.544 0,71.544 M 0,89.43 c -2.611,0 -4.727,2.117 -4.727,4.728 0,2.611 2.116,4.727 4.727,4.727 2.611,0 4.727,-2.116 4.727,-4.727 C 4.727,91.547 2.611,89.43 0,89.43 m 0,17.887 c -2.611,0 -4.727,2.116 -4.727,4.727 0,2.611 2.116,4.727 4.727,4.727 2.611,0 4.727,-2.116 4.727,-4.727 0,-2.611 -2.116,-4.727 -4.727,-4.727 m 75.556,23.344 H -5.486 c -4.512,0 -8.17,-3.658 -8.17,-8.17 V -5.719 c 0,-4.512 3.658,-8.17 8.17,-8.17 h 81.042 c 4.512,0 8.17,3.658 8.17,8.17 v 128.21 c 0,4.512 -3.658,8.17 -8.17,8.17 M 0,-2 c 3.709,0 6.727,3.018 6.727,6.727 0,3.71 -3.018,6.728 -6.727,6.728 -3.709,0 -6.727,-3.018 -6.727,-6.728 C -6.727,1.018 -3.709,-2 0,-2 m 0,17.886 c 3.709,0 6.727,3.018 6.727,6.728 0,3.709 -3.018,6.727 -6.727,6.727 -3.709,0 -6.727,-3.018 -6.727,-6.727 0,-3.71 3.018,-6.728 6.727,-6.728 m 0,17.886 c 3.709,0 6.727,3.018 6.727,6.728 0,3.709 -3.018,6.727 -6.727,6.727 -3.709,0 -6.727,-3.018 -6.727,-6.727 0,-3.71 3.018,-6.728 6.727,-6.728 m 0,17.886 c 3.709,0 6.727,3.018 6.727,6.728 0,3.709 -3.018,6.727 -6.727,6.727 -3.709,0 -6.727,-3.018 -6.727,-6.727 0,-3.71 3.018,-6.728 6.727,-6.728 m 0,17.886 c 3.709,0 6.727,3.018 6.727,6.728 0,3.709 -3.018,6.727 -6.727,6.727 -3.709,0 -6.727,-3.018 -6.727,-6.727 0,-3.71 3.018,-6.728 6.727,-6.728 M 0,87.43 c 3.709,0 6.727,3.018 6.727,6.728 0,3.709 -3.018,6.727 -6.727,6.727 -3.709,0 -6.727,-3.018 -6.727,-6.727 0,-3.71 3.018,-6.728 6.727,-6.728 m 0,17.887 c 3.709,0 6.727,3.017 6.727,6.727 0,3.71 -3.018,6.727 -6.727,6.727 -3.709,0 -6.727,-3.017 -6.727,-6.727 0,-3.71 3.018,-6.727 6.727,-6.727 m 75.556,23.344 c 3.402,0 6.17,-2.768 6.17,-6.17 V -5.719 c 0,-3.402 -2.768,-6.17 -6.17,-6.17 H -5.486 c -3.402,0 -6.17,2.768 -6.17,6.17 v 128.21 c 0,3.402 2.768,6.17 6.17,6.17 h 81.042" /></g><g
     id="g338"
     transform="matrix(1.3333333,0,0,-1.3333333,-439.6509,373.30821)"
     clip-path="url(#clipPath23109)"><g
       id="g340" /><g
       id="g352"><g
         style="opacity:0.199997"
         id="g350"
         clip-path="url(#clipPath344)"><g
           id="g348"
           transform="translate(381.9882,267.5763)"><path
             id="path346"
             style="fill:#000000;fill-opacity:1;fill-rule:nonzero;stroke:none"
             d="m 0,0 c -4.993,0 -9.04,-4.048 -9.04,-9.04 v -123.105 h 52.81 c 4.511,0 8.169,3.658 8.169,8.17 L 51.939,0 Z" /></g></g></g></g><g
     transform="matrix(1.3333333,0,0,-1.3333333,128.02615,6.1929574e-4)"
     id="g354"
     clip-path="url(#clipPath23103)"><path
       id="path356"
       style="fill:#005639;fill-opacity:1;fill-rule:nonzero;stroke:none"
       d="m 0,0 h -81.042 c -4.512,0 -8.17,-3.658 -8.17,-8.17 v -128.21 c 0,-4.512 3.658,-8.17 8.17,-8.17 H 0 c 4.512,0 8.17,3.658 8.17,8.17 V -8.17 C 8.17,-3.658 4.512,0 0,0 m 0,-4 c 2.299,0 4.17,-1.871 4.17,-4.17 v -128.21 c 0,-2.299 -1.871,-4.17 -4.17,-4.17 h -81.042 c -2.299,0 -4.17,1.871 -4.17,4.17 V -8.17 c 0,2.299 1.871,4.17 4.17,4.17 H 0" /></g><g
     transform="matrix(1.3333333,0,0,-1.3333333,27.200021,29.318349)"
     id="g358"
     clip-path="url(#clipPath23097)"><path
       id="path360"
       style="fill:#005639;fill-opacity:1;fill-rule:nonzero;stroke:none"
       d="M 0,0 H -17.028 C -18.89,0 -20.4,1.51 -20.4,3.372 v 0 c 0,1.862 1.51,3.371 3.372,3.371 H 0 c 1.862,0 3.372,-1.509 3.372,-3.371 v 0 C 3.372,1.51 1.862,0 0,0" /></g><g
     transform="matrix(1.3333333,0,0,-1.3333333,27.200021,53.166479)"
     id="g362"
     clip-path="url(#clipPath23091)"><path
       id="path364"
       style="fill:#005639;fill-opacity:1;fill-rule:nonzero;stroke:none"
       d="M 0,0 H -17.028 C -18.89,0 -20.4,1.51 -20.4,3.372 v 0 c 0,1.862 1.51,3.371 3.372,3.371 H 0 c 1.862,0 3.372,-1.509 3.372,-3.371 v 0 C 3.372,1.51 1.862,0 0,0" /></g><g
     transform="matrix(1.3333333,0,0,-1.3333333,27.200021,77.014619)"
     id="g366"
     clip-path="url(#clipPath23085)"><path
       id="path368"
       style="fill:#005639;fill-opacity:1;fill-rule:nonzero;stroke:none"
       d="m 0,0 h -17.028 c -1.862,0 -3.372,1.51 -3.372,3.372 0,1.862 1.51,3.371 3.372,3.371 H 0 C 1.862,6.743 3.372,5.234 3.372,3.372 3.372,1.51 1.862,0 0,0" /></g><g
     transform="matrix(1.3333333,0,0,-1.3333333,27.200021,100.86262)"
     id="g370"
     clip-path="url(#clipPath23079)"><path
       id="path372"
       style="fill:#005639;fill-opacity:1;fill-rule:nonzero;stroke:none"
       d="M 0,0 H -17.028 C -18.89,0 -20.4,1.51 -20.4,3.372 v 0 c 0,1.862 1.51,3.371 3.372,3.371 H 0 c 1.862,0 3.372,-1.509 3.372,-3.371 v 0 C 3.372,1.51 1.862,0 0,0" /></g><g
     transform="matrix(1.3333333,0,0,-1.3333333,27.200021,124.71075)"
     id="g374"
     clip-path="url(#clipPath23073)"><path
       id="path376"
       style="fill:#005639;fill-opacity:1;fill-rule:nonzero;stroke:none"
       d="m 0,0 h -17.028 c -1.862,0 -3.372,1.51 -3.372,3.372 0,1.862 1.51,3.371 3.372,3.371 H 0 C 1.862,6.743 3.372,5.234 3.372,3.372 3.372,1.51 1.862,0 0,0" /></g><g
     transform="matrix(1.3333333,0,0,-1.3333333,27.200021,148.55888)"
     id="g378"
     clip-path="url(#clipPath23067)"><path
       id="path380"
       style="fill:#005639;fill-opacity:1;fill-rule:nonzero;stroke:none"
       d="M 0,0 H -17.028 C -18.89,0 -20.4,1.51 -20.4,3.372 v 0 c 0,1.862 1.51,3.371 3.372,3.371 H 0 c 1.862,0 3.372,-1.509 3.372,-3.371 v 0 C 3.372,1.51 1.862,0 0,0" /></g><g
     transform="matrix(1.3333333,0,0,-1.3333333,27.200021,172.40702)"
     id="g382"
     clip-path="url(#clipPath23061)"><path
       id="path384"
       style="fill:#005639;fill-opacity:1;fill-rule:nonzero;stroke:none"
       d="m 0,0 h -17.028 c -1.862,0 -3.372,1.51 -3.372,3.372 0,1.862 1.51,3.371 3.372,3.371 H 0 C 1.862,6.743 3.372,5.234 3.372,3.372 3.372,1.51 1.862,0 0,0" /></g><g
     transform="matrix(1.3333333,0,0,-1.3333333,75.000551,211.93968)"
     id="g386"
     clip-path="url(#clipPath23055)"><path
       id="path388"
       style="fill:#589f73;fill-opacity:1;fill-rule:nonzero;stroke:none"
       d="M 0,0 C -4.434,0 -8.041,3.607 -8.041,8.041 V 134.51 c 0,4.433 3.607,8.04 8.041,8.04 h 79.301 c 4.433,0 8.04,-3.607 8.04,-8.04 V 8.041 C 87.341,3.607 83.734,0 79.301,0 Z" /></g><g
     transform="matrix(1.3333333,0,0,-1.3333333,180.73455,20.539819)"
     id="g390"
     clip-path="url(#clipPath23049)"><path
       id="path392"
       style="fill:#005639;fill-opacity:1;fill-rule:nonzero;stroke:none"
       d="m 0,0 h -79.301 c -4.993,0 -9.04,-4.048 -9.04,-9.04 v -126.469 c 0,-4.993 4.047,-9.041 9.04,-9.041 H 0 c 4.993,0 9.04,4.048 9.04,9.041 V -9.04 C 9.04,-4.048 4.993,0 0,0 m 0,-2 c 3.882,0 7.04,-3.158 7.04,-7.04 v -126.469 c 0,-3.882 -3.158,-7.041 -7.04,-7.041 h -79.301 c -3.882,0 -7.04,3.159 -7.04,7.041 V -9.04 c 0,3.882 3.158,7.04 7.04,7.04 L 0,-2" /></g><g
     transform="matrix(1.3333333,0,0,-1.3333333,92.419091,20.539819)"
     id="g394"
     clip-path="url(#clipPath23043)"><path
       id="path396"
       style="fill:#005639;fill-opacity:1;fill-rule:nonzero;stroke:none"
       d="m 0,0 h -13.935 c -4.512,0 -8.17,-3.658 -8.17,-8.17 v -128.21 c 0,-4.512 3.658,-8.17 8.17,-8.17 H 0 Z" /></g><g
     transform="matrix(1.3333333,0,0,-1.3333333,169.40815,199.92275)"
     id="g398"
     clip-path="url(#clipPath23037)"><path
       id="path400"
       style="fill:#fff799;fill-opacity:1;fill-rule:nonzero;stroke:none"
       d="m 0,0 c -3.916,0 -7.102,3.186 -7.102,7.102 0,3.916 3.186,7.101 7.102,7.101 3.916,0 7.102,-3.185 7.102,-7.101 C 7.102,3.186 3.916,0 0,0" /></g><g
     transform="matrix(1.3333333,0,0,-1.3333333,169.40788,179.65195)"
     id="g402"
     clip-path="url(#clipPath23031)"><path
       id="path404"
       style="fill:#005639;fill-opacity:1;fill-rule:nonzero;stroke:none"
       d="m 0,0 c -4.474,0 -8.102,-3.627 -8.102,-8.102 0,-4.474 3.628,-8.101 8.102,-8.101 4.474,0 8.102,3.627 8.102,8.101 C 8.102,-3.627 4.474,0 0,0 m 0,-2 c 3.365,0 6.102,-2.737 6.102,-6.102 0,-3.364 -2.737,-6.101 -6.102,-6.101 -3.365,0 -6.102,2.737 -6.102,6.101 C -6.102,-4.737 -3.365,-2 0,-2" /></g><g
     transform="matrix(1.3333333,0,0,-1.3333333,180.73455,20.539819)"
     id="g406"
     clip-path="url(#clipPath23025)"><path
       id="path408"
       style="fill:#005639;fill-opacity:1;fill-rule:nonzero;stroke:none"
       d="m 0,0 h -79.301 c -4.993,0 -9.04,-4.048 -9.04,-9.04 v -126.469 c 0,-4.993 4.047,-9.041 9.04,-9.041 H 0 c 4.993,0 9.04,4.048 9.04,9.041 V -9.04 C 9.04,-4.048 4.993,0 0,0 m 0,-4 c 2.779,0 5.04,-2.261 5.04,-5.04 v -126.469 c 0,-2.779 -2.261,-5.041 -5.04,-5.041 h -79.301 c -2.779,0 -5.04,2.262 -5.04,5.041 V -9.04 c 0,2.779 2.261,5.04 5.04,5.04 L 0,-4" /></g><g
     transform="matrix(1.3333333,0,0,-1.3333333,113.32749,105.87982)"
     id="g410"
     clip-path="url(#clipPath23019)"><path
       id="path412"
       style="fill:#f37043;fill-opacity:1;fill-rule:nonzero;stroke:none"
       d="M 0,0 C -0.186,0.155 -0.413,0.232 -0.641,0.232 -0.868,0.232 -1.096,0.155 -1.281,0 L -5.645,-3.641 V 63.047 H 4.364 V -3.641 Z" /></g><g
     transform="matrix(1.3333333,0,0,-1.3333333,120.47949,20.484349)"
     id="g414"
     clip-path="url(#clipPath23013)"><path
       id="path416"
       style="fill:#005639;fill-opacity:1;fill-rule:nonzero;stroke:none"
       d="m 0,0 h -12.008 v -69.824 l 6.004,5.009 L 0,-69.824 Z m -2,-2 v -63.551 l -2.723,2.272 c -0.371,0.31 -0.826,0.464 -1.281,0.464 -0.455,0 -0.91,-0.154 -1.281,-0.464 l -2.723,-2.272 V -2 H -2" /></g></svg>
