<?xml version="1.0" encoding="UTF-8" standalone="no"?>
<svg
   viewBox="0 0 190.89307 213.89881"
   height="213.89882"
   width="190.89308"
   xml:space="preserve"
   id="svg2"
   version="1.1"
   xmlns="http://www.w3.org/2000/svg"
   xmlns:svg="http://www.w3.org/2000/svg"
   xmlns:rdf="http://www.w3.org/1999/02/22-rdf-syntax-ns#"
   xmlns:cc="http://creativecommons.org/ns#"
   xmlns:dc="http://purl.org/dc/elements/1.1/"><metadata
     id="metadata8"><rdf:RDF><cc:Work
         rdf:about=""><dc:format>image/svg+xml</dc:format><dc:type
           rdf:resource="http://purl.org/dc/dcmitype/StillImage" /></cc:Work></rdf:RDF></metadata><defs
     id="defs6"><clipPath
       id="clipPath936"
       clipPathUnits="userSpaceOnUse"><path
         id="path934"
         d="M 545.875,253.656 H 654.076 V 155.749 H 545.875 Z" /></clipPath><clipPath
       id="clipPath952"
       clipPathUnits="userSpaceOnUse"><path
         id="path950"
         d="m 538.561,271.314 h 59.908 v -59.959 h -59.908 z" /></clipPath><clipPath
       clipPathUnits="userSpaceOnUse"
       id="clipPath22275"><g
         id="g22279"
         style="stroke-width:1.33333"
         transform="matrix(0.75000002,0,0,-0.75000002,-592.5314,519.78415)"><path
           id="path22277"
           d="M 0,6e-5 H 1066.6666 V 1066.6667 H 0 Z"
           style="stroke-width:1.33333" /></g></clipPath><clipPath
       clipPathUnits="userSpaceOnUse"
       id="clipPath22281"><g
         id="g22285"
         style="stroke-width:1.33333"
         transform="matrix(0.75000002,0,0,-0.75000002,0,800.00005)"><path
           id="path22283"
           d="M 0,6e-5 H 1066.6666 V 1066.6667 H 0 Z"
           style="stroke-width:1.33333" /></g></clipPath><clipPath
       clipPathUnits="userSpaceOnUse"
       id="clipPath22287"><g
         id="g22291"
         style="stroke-width:1.33333"
         transform="matrix(0.75000002,0,0,-0.75000002,0,800.00005)"><path
           id="path22289"
           d="M 0,6e-5 H 1066.6666 V 1066.6667 H 0 Z"
           style="stroke-width:1.33333" /></g></clipPath><clipPath
       clipPathUnits="userSpaceOnUse"
       id="clipPath22293"><g
         id="g22297"
         style="stroke-width:1.33333"
         transform="matrix(0.75000002,0,0,-0.75000002,-575.9728,634.82255)"><path
           id="path22295"
           d="M 0,6e-5 H 1066.6666 V 1066.6667 H 0 Z"
           style="stroke-width:1.33333" /></g></clipPath><clipPath
       clipPathUnits="userSpaceOnUse"
       id="clipPath22299"><g
         id="g22303"
         style="stroke-width:1.33333"
         transform="matrix(0.75000002,0,0,-0.75000002,-592.5314,519.78415)"><path
           id="path22301"
           d="M 0,6e-5 H 1066.6666 V 1066.6667 H 0 Z"
           style="stroke-width:1.33333" /></g></clipPath><clipPath
       clipPathUnits="userSpaceOnUse"
       id="clipPath22305"><g
         id="g22309"
         style="stroke-width:1.33333"
         transform="matrix(0.75000002,0,0,-0.75000002,-592.5316,644.81155)"><path
           id="path22307"
           d="M 0,6e-5 H 1066.6666 V 1066.6667 H 0 Z"
           style="stroke-width:1.33333" /></g></clipPath><clipPath
       clipPathUnits="userSpaceOnUse"
       id="clipPath22311"><g
         id="g22315"
         style="stroke-width:1.33333"
         transform="matrix(0.75000002,0,0,-0.75000002,-592.5647,664.03025)"><path
           id="path22313"
           d="M 0,6e-5 H 1066.6666 V 1066.6667 H 0 Z"
           style="stroke-width:1.33333" /></g></clipPath><clipPath
       clipPathUnits="userSpaceOnUse"
       id="clipPath22317"><g
         id="g22321"
         style="stroke-width:1.33333"
         transform="matrix(0.75000002,0,0,-0.75000002,-563.5756,678.20804)"><path
           id="path22319"
           d="M 0,6e-5 H 1066.6666 V 1066.6667 H 0 Z"
           style="stroke-width:1.33333" /></g></clipPath><clipPath
       clipPathUnits="userSpaceOnUse"
       id="clipPath22323"><g
         id="g22327"
         style="stroke-width:1.33333"
         transform="matrix(0.75000002,0,0,-0.75000002,-648.2852,529.63125)"><path
           id="path22325"
           d="M 0,6e-5 H 1066.6666 V 1066.6667 H 0 Z"
           style="stroke-width:1.33333" /></g></clipPath><clipPath
       clipPathUnits="userSpaceOnUse"
       id="clipPath22329"><g
         id="g22333"
         style="stroke-width:1.33333"
         transform="matrix(0.75000002,0,0,-0.75000002,-592.5648,659.57424)"><path
           id="path22331"
           d="M 0,6e-5 H 1066.6666 V 1066.6667 H 0 Z"
           style="stroke-width:1.33333" /></g></clipPath><clipPath
       clipPathUnits="userSpaceOnUse"
       id="clipPath22335"><g
         id="g22339"
         style="stroke-width:1.33333"
         transform="matrix(0.75000002,0,0,-0.75000002,-577.1146,541.73575)"><path
           id="path22337"
           d="M 0,6e-5 H 1066.6666 V 1066.6667 H 0 Z"
           style="stroke-width:1.33333" /></g></clipPath><clipPath
       clipPathUnits="userSpaceOnUse"
       id="clipPath22341"><g
         id="g22345"
         style="stroke-width:1.33333"
         transform="matrix(0.75000002,0,0,-0.75000002,-551.09,642.13064)"><path
           id="path22343"
           d="M 0,6e-5 H 1066.6666 V 1066.6667 H 0 Z"
           style="stroke-width:1.33333" /></g></clipPath><clipPath
       clipPathUnits="userSpaceOnUse"
       id="clipPath22347"><g
         id="g22351"><path
           id="path22349"
           d="M 0,6e-5 H 1066.6666 V 1066.6667 H 0 Z"
           style="stroke-width:1" /></g></clipPath></defs><path
     id="path892"
     style="fill:#005639;fill-opacity:1;fill-rule:nonzero;stroke:none;stroke-width:1.33333"
     d="m 795.13465,891.8547 h -10.09734 v -16.32533 h 10.09734 z"
     clip-path="url(#clipPath22347)"
     transform="translate(-705.22586,-693.0455)" /><g
     transform="matrix(1.3333333,0,0,-1.3333333,29.560788,163.12867)"
     id="g894"
     clip-path="url(#clipPath22341)"><path
       id="path896"
       style="fill:#005639;fill-opacity:1;fill-rule:nonzero;stroke:none"
       d="m 0,0 -5.355,5.355 102.09,102.089 5.355,-5.354 z" /></g><g
     transform="matrix(1.3333333,0,0,-1.3333333,64.260248,29.268808)"
     id="g898"
     clip-path="url(#clipPath22335)"><path
       id="path900"
       style="fill:none;stroke:#6670d9;stroke-width:0.5;stroke-linecap:butt;stroke-linejoin:miter;stroke-miterlimit:10;stroke-dasharray:none;stroke-opacity:1"
       d="M 0,0 C 0.567,-0.39 1.147,-0.784 1.742,-1.18" /></g><g
     transform="matrix(1.3333333,0,0,-1.3333333,84.860518,186.3868)"
     id="g902"
     clip-path="url(#clipPath22329)"><path
       id="path904"
       style="fill:#fff799;fill-opacity:1;fill-rule:nonzero;stroke:none"
       d="m 0,0 c -18.025,0 -35.583,6.266 -49.44,17.643 -0.991,0.812 -1.571,1.973 -1.634,3.269 -0.065,1.313 0.43,2.598 1.358,3.525 0.864,0.864 2.015,1.339 3.24,1.339 1.091,0 2.163,-0.386 3.017,-1.088 C -31.273,14.696 -15.84,9.192 0,9.192 c 37.609,0 68.207,30.319 68.207,67.584 0,15.885 -5.679,31.323 -15.99,43.469 -1.604,1.889 -1.519,4.606 0.197,6.321 0.893,0.893 2.062,1.377 3.307,1.377 1.336,0 2.593,-0.575 3.452,-1.578 C 71.007,112.533 77.524,94.922 77.524,76.776 77.524,34.441 42.747,0 0,0" /></g><g
     transform="matrix(1.3333333,0,0,-1.3333333,159.15439,13.129478)"
     id="g906"
     clip-path="url(#clipPath22323)"><path
       id="path908"
       style="fill:#005639;fill-opacity:1;fill-rule:nonzero;stroke:none"
       d="m 0,0 c -1.699,0 -3.406,-0.648 -4.707,-1.949 l -0.014,-0.014 c -2.461,-2.461 -2.56,-6.376 -0.307,-9.029 9.679,-11.402 15.514,-26.111 15.514,-42.175 0,-36.221 -29.643,-65.583 -66.206,-65.583 -16.035,0 -30.735,5.647 -42.191,15.042 -1.253,1.028 -2.773,1.541 -4.285,1.541 -1.691,0 -3.371,-0.642 -4.654,-1.925 -2.745,-2.745 -2.581,-7.291 0.42,-9.754 13.764,-11.301 31.435,-18.097 50.71,-18.097 43.918,0 79.524,35.269 79.524,78.776 0,19.403 -7.088,37.162 -18.832,50.889 C 3.675,-0.762 1.842,0 0,0 m 0,-4 c 0.441,0 1.279,-0.114 1.933,-0.878 11.524,-13.471 17.871,-30.62 17.871,-48.289 0,-41.231 -33.88,-74.776 -75.524,-74.776 -17.565,0 -34.672,6.104 -48.172,17.188 -0.739,0.608 -0.884,1.402 -0.905,1.822 -0.022,0.44 0.05,1.287 0.776,2.013 0.486,0.486 1.134,0.753 1.825,0.753 0.629,0 1.25,-0.225 1.749,-0.634 12.541,-10.285 28.425,-15.949 44.727,-15.949 38.712,0 70.206,31.215 70.206,69.583 0,16.36 -5.847,32.257 -16.465,44.764 -0.923,1.087 -0.886,2.639 0.1,3.625 C -1.377,-4.276 -0.71,-4 0,-4" /></g><g
     transform="matrix(1.3333333,0,0,-1.3333333,46.208248,211.23187)"
     id="g910"
     clip-path="url(#clipPath22317)"><path
       id="path912"
       style="fill:#fff799;fill-opacity:1;fill-rule:nonzero;stroke:none"
       d="m 0,0 c 7.615,7.753 18.112,12.178 28.989,12.178 10.878,0 21.374,-4.424 28.99,-12.179 z" /></g><g
     transform="matrix(1.3333333,0,0,-1.3333333,84.860388,192.32814)"
     id="g914"
     clip-path="url(#clipPath22311)"><path
       id="path916"
       style="fill:#005639;fill-opacity:1;fill-rule:nonzero;stroke:none"
       d="m 0,0 c -12.369,0 -23.5,-5.274 -31.286,-13.69 -0.875,-0.946 -0.182,-2.488 1.107,-2.488 h 60.358 c 1.289,0 1.982,1.542 1.107,2.488 C 23.5,-5.274 12.369,0 0,0 m 0,-4 c 8.628,0 17.003,-2.927 23.746,-8.178 H -23.746 C -17.003,-6.927 -8.628,-4 0,-4" /></g><g
     transform="matrix(1.3333333,0,0,-1.3333333,84.816248,166.70321)"
     id="g918"
     clip-path="url(#clipPath22305)"><path
       id="path920"
       style="fill:#589f73;fill-opacity:1;fill-rule:nonzero;stroke:none"
       d="m 0,0 c -34.524,0 -62.612,27.819 -62.612,62.014 0,34.194 28.088,62.013 62.612,62.013 34.524,0 62.612,-27.819 62.612,-62.013 C 62.612,27.819 34.524,0 0,0" /></g><g
     transform="matrix(1.3333333,0,0,-1.3333333,84.815988,7.5910924e-6)"
     id="g922"
     clip-path="url(#clipPath22299)"><path
       id="path924"
       style="fill:#005639;fill-opacity:1;fill-rule:nonzero;stroke:none"
       d="m 0,0 c -35.133,0 -63.612,-28.212 -63.612,-63.014 0,-34.802 28.479,-63.013 63.612,-63.013 35.131,0 63.612,28.211 63.612,63.013 C 63.612,-28.212 35.131,0 0,0 m 0,-2 c 33.973,0 61.612,-27.371 61.612,-61.014 0,-33.643 -27.639,-61.013 -61.612,-61.013 -33.973,0 -61.612,27.37 -61.612,61.013 C -61.612,-29.371 -33.973,-2 0,-2" /></g><g
     transform="matrix(1.3333333,0,0,-1.3333333,62.737848,153.38454)"
     id="g926"
     clip-path="url(#clipPath22293)"><path
       id="path928"
       style="fill:#faa73f;fill-opacity:1;fill-rule:nonzero;stroke:#005639;stroke-width:2;stroke-linecap:round;stroke-linejoin:round;stroke-miterlimit:10;stroke-dasharray:none;stroke-opacity:1"
       d="m 0,0 c 1.004,-0.035 1.119,0.6 1.712,1.6 0.859,1.438 2.737,-0.374 3.19,1.647 0.18,0.814 1.275,0.09 1.997,0.838 0.661,0.682 2.625,0.544 3.477,0.464 1.429,-0.137 2.128,0.526 3.62,0.341 1.313,-0.163 2.536,-0.246 2.807,1.32 0.178,1.02 2.158,-0.445 2.952,-0.445 1.857,0 1.866,1.107 3.494,1.516 1.146,0.288 2.12,0.466 3.286,0.58 1.618,0.159 2.057,1.298 3.092,2.366 0.577,0.595 5.173,1.742 5.89,1.004 0.688,-0.711 4.789,1.006 4.789,1.198 0,1.49 4.65,4.194 5.813,5.392 1.065,1.097 2.961,2.33 4.071,2.658 3.234,0.953 2.583,3.968 1.959,6.476 -0.378,1.506 0.229,2.097 -1.819,2.097 -1.418,0 -1.537,0.723 -1.92,1.839 -0.385,1.131 0.098,1.837 -0.857,2.82 -0.528,0.547 -0.792,2.667 -0.198,3.277 0.92,0.949 -0.463,1.962 -0.049,2.67 0.649,1.119 0.31,1.365 0.13,2.638 -0.399,2.776 -2.65,3.181 -4.164,4.74 -0.256,0.264 -3.145,2.719 -2.601,3.281 0.861,0.889 0.644,1.405 -0.4,2.208 -1.191,0.919 -2.185,0.089 -3.601,0.362 -0.675,0.129 -2.062,2.394 -2.358,2.7 -0.519,0.535 -0.813,-0.561 -0.974,0.476 -0.129,0.815 -0.521,0.706 -1.019,1.105 -0.158,0.13 -1.303,-0.523 -1.38,-0.411 -0.264,0.395 -0.469,1.74 0.563,1.74 -0.509,0 -1.394,-0.262 -2.013,-0.131 -0.832,0.175 -1.88,1.322 -2.543,0.638 -1.021,-1.052 -2.062,-2.999 -3.092,-1.509 -0.486,0.705 -1.266,1.513 -1.915,2.067 -0.318,0.272 -0.827,-0.706 -1.483,-0.028 -3.711,3.822 2.611,5.38 0.306,8.23 -0.96,1.189 -2.546,1.055 -3.786,1.401 -1.866,0.516 2.415,3.094 2.415,3.167 0,0.453 1.912,1.695 1.779,1.835 -1.219,1.257 -0.387,1.834 -2.506,1.834 -1.067,0 -7.052,-2.933 -7.052,-0.16 0,1.159 0.228,2.222 -0.234,3.261 -0.635,1.448 2.798,4.715 3.405,5.57 0.579,0.812 3.73,0.861 4.841,0.861 1.383,0 2.352,-3.647 3.531,-2.608 0.211,0.187 -0.315,1.175 0.395,1.653 0.841,0.568 0.444,0.846 1.588,0.374 0.243,-0.1 1.408,-0.901 1.063,-1.259 -0.911,-0.939 1.415,-0.831 1.399,-0.803 1.03,-1.735 -1.051,-4.946 0.616,-6.666 1.009,-1.039 2.223,5.837 2.434,6.215 0.415,0.759 1.151,1.5 2.541,1.5 2.405,0 2.265,-0.169 3.549,1.45 0.365,0.458 1.317,0.011 1.317,0.57 0,1.812 0.687,0.909 1.598,1.349 0.374,0.18 2.765,1.647 3.05,1.647 1.903,0 4.815,-2.117 6.088,-0.801 0.633,0.649 -1.812,0.82 0.568,1.763 0.696,0.278 2.833,-2.749 3.377,-3.079 0.264,-0.16 0.474,1.741 0.474,1.68 0,-0.141 -1.703,2.571 -1.427,2.337 -1.135,0.975 -2.088,2.159 -2.915,3.388 -0.586,0.866 -1.135,1.949 -2.015,2.533 -0.243,0.161 -0.547,0.906 -0.547,1.186 0,0.71 -1.242,-0.137 -1.606,0.241 -0.463,0.476 -4.575,5.012 -4.575,2.526 0,-0.47 -1.976,-3.645 -2.646,-3.645 -0.418,0 -0.596,1.35 -0.596,1.652 0,1.44 -0.873,1.157 -1.66,1.936 -0.818,0.813 -2.733,1.933 -2.887,3.145 0.948,0.557 4.806,0.624 5.558,-0.392 0.456,0.17 2.289,0.808 2.462,0.504 0.299,-0.529 1.595,-0.871 2.085,-1.375 0.493,-0.512 0.629,-1.126 1.1,-1.616 1.217,-1.252 3.312,-0.324 2.086,0.24 -1.383,0.633 -2.611,2.24 -3.875,3.194 -1.817,1.369 -2.419,2.228 -4.909,3.175 -6.459,2.447 -13.433,3.567 -20.306,3.342 0.159,-0.64 -5.047,-4.247 -6.1,-5.33 C 8.265,103.315 5.593,102.906 4.173,99.605 2.658,99.044 4.991,97.105 3.69,95.765 3.041,95.091 2.083,93.014 2.163,92.095 2.286,90.628 1.175,92.114 0.722,91.648 1.394,92.339 1.513,88.917 1.513,88.915 1.443,88.324 2.09,85.888 1.777,85.566 2.961,86.785 2.471,94.448 4.9,94.179 4.428,94.232 4.575,83.116 3.795,82.308 3.564,82.301 3.335,82.304 3.104,82.32 3.428,82.654 3.657,79.742 3.685,79.669 3.933,79.055 4.944,77.81 5.448,77.29 6.35,76.36 7.044,75.884 7.88,75.064 8.426,74.527 9.169,73.38 9.949,73.38 c 1.254,0 0.929,-0.245 1.207,-1.134 -0.018,0.06 1.238,-0.251 1.408,-0.37 0.785,-0.538 -0.284,-2.182 0.939,-2.813 -0.116,0.06 1.306,-3.077 1.35,-3.154 0.374,-0.637 0.1,-0.439 0.1,-1.227 0,-0.231 0.848,-0.2 1,-0.625 0.201,-0.567 0.93,-2.849 0.904,-3.236 0.009,0.121 1.828,-1.761 2.153,-2.044 0.703,-0.612 1.142,-1.289 1.796,-1.963 0.215,-0.221 1.147,0.255 1.829,-0.671 0.035,-0.049 -0.43,-1.669 -0.423,-1.647 -0.084,-0.295 -1.682,-3.131 -1.696,-3.131 -1.399,0 -1.807,-1.071 -3.145,-0.898 -0.437,0.057 -0.776,-0.457 -0.776,-0.842 0,-0.822 -1.835,-0.654 -2.274,-0.709 -1.988,-0.25 -0.934,-2.026 -1.441,-2.723 -0.323,-0.443 -1.448,0.066 -1.637,-0.167 -0.276,-0.344 -0.313,-1.808 -0.313,-2.354 0,-0.909 -0.073,-2.53 0.245,-3.51 0.556,-1.719 0.056,-2.023 0.056,-3.786 0,-0.99 -0.122,-4.681 0.516,-5.341 0.649,-0.668 0.794,-1.885 1.009,-2.105 0.397,-0.409 -0.308,-0.615 -0.068,-0.999 0.397,-0.624 2.247,-0.448 2.247,-1.248 0,-0.707 0.602,-0.816 0.516,-1.613 -0.089,-0.831 -1.06,-1.55 -1.06,-2.092 0,-0.654 -1.261,-2.686 -1.64,-3.23 C 10.15,16.018 6.81,12.578 3.958,9.639 3.291,8.952 2.744,8.426 2.214,7.394 1.095,5.21 1.357,6.343 -0.336,5.222 -1.343,4.554 -1.53,0.799 0,0" /></g><g
     id="g930"
     transform="matrix(1.3333333,0,0,-1.3333333,-705.22586,373.6212)"
     clip-path="url(#clipPath22287)"><g
       id="g932" /><g
       id="g944"><g
         style="opacity:0.199997"
         id="g942"
         clip-path="url(#clipPath936)"><g
           id="g940"
           transform="translate(642.2342,253.6561)"><path
             id="path938"
             style="fill:#000000;fill-opacity:1;fill-rule:nonzero;stroke:none"
             d="m 0,0 c 2.34,-6.718 3.627,-13.929 3.627,-21.444 0,-36.009 -29.191,-65.2 -65.2,-65.2 -12.794,0 -24.717,3.699 -34.786,10.066 11.296,-13.057 27.974,-21.329 46.594,-21.329 34.024,0 61.606,27.582 61.606,61.606 C 11.841,-22.725 7.44,-10.182 0,0" /></g></g></g></g><g
     id="g946"
     transform="matrix(1.3333333,0,0,-1.3333333,-705.22586,373.6212)"
     clip-path="url(#clipPath22281)"><g
       id="g948" /><g
       id="g960"><g
         style="opacity:0.600006"
         id="g958"
         clip-path="url(#clipPath952)"><g
           id="g956"
           transform="translate(544.5609,217.3554)"><path
             id="path954"
             style="fill:none;stroke:#ffffff;stroke-width:12;stroke-linecap:round;stroke-linejoin:round;stroke-miterlimit:10;stroke-dasharray:none;stroke-opacity:1"
             d="M 0,0 C 0,25.477 22.431,47.958 47.908,47.958" /></g></g></g></g><g
     transform="matrix(1.3333333,0,0,-1.3333333,84.815988,7.5910924e-6)"
     id="g962"
     clip-path="url(#clipPath22275)"><path
       id="path964"
       style="fill:#005639;fill-opacity:1;fill-rule:nonzero;stroke:none"
       d="m 0,0 c -35.133,0 -63.612,-28.212 -63.612,-63.014 0,-34.802 28.479,-63.013 63.612,-63.013 35.131,0 63.612,28.211 63.612,63.013 C 63.612,-28.212 35.131,0 0,0 m 0,-4 c 32.87,0 59.612,-26.473 59.612,-59.014 0,-32.54 -26.742,-59.013 -59.612,-59.013 -32.87,0 -59.612,26.473 -59.612,59.013 C -59.612,-30.473 -32.87,-4 0,-4" /></g></svg>
