<?xml version="1.0" encoding="UTF-8" standalone="no"?>
<!-- Created with Inkscape (http://www.inkscape.org/) -->

<svg
   version="1.1"
   id="svg4346"
   width="101.61767"
   height="108.14726"
   viewBox="0 0 101.61767 108.14726"
   xmlns="http://www.w3.org/2000/svg"
   xmlns:svg="http://www.w3.org/2000/svg">
  <defs
     id="defs4350" />
  <g
     id="g4352"
     transform="translate(174.28847,-26.262875)">
    <path
       id="rect4522"
       style="fill:#fffffd;fill-opacity:1;stroke-width:18.8976;stroke-linecap:round;paint-order:stroke fill markers"
       d="m -150.44862,26.268434 c -3.45889,-0.08333 -6.43144,0.776889 -9.98437,2.117188 -7.54367,2.845751 -13.85547,7.493469 -13.85547,10.203125 0,1.169537 0.89724,2.904135 1.99414,3.855469 2.50935,2.176348 6.17134,1.568425 11.4375,-1.902344 3.82808,-3.338156 8.26208,-3.887625 13.34961,-4.103516 5.08752,-0.215892 9.59821,2.044839 14.21875,4.328125 4.04576,1.999254 6.34224,4.007783 8.6875,7.595703 2.04061,3.121856 2.97265,6.4375 2.97265,6.4375 0,0 -1.89416,-0.349609 -3.42382,-0.349609 -3.52117,0 -12.31346,2.727784 -15.33008,4.755859 -8.82437,5.932622 -11.90625,10.792281 -11.90625,18.777344 0,5.771578 1.78892,10.054392 5.81836,11.736328 4.02944,1.681937 7.58333,2.153184 10.6289,2.371094 3.04558,0.21791 6.77093,-0.06487 9.7461,-1.595703 2.97517,-1.530837 10.63604,-8.537565 12.72558,-12.721692 1.47545,-2.954448 2.94044,-5.798556 3.80281,-8.93357 l 5.77987,4.442491 c 4.526034,4.386292 8.447751,12.724043 7.480799,14.679568 0,0 -3.265225,-0.595054 -6.453129,0.105469 -3.18789,0.700522 -13.95996,5.12213 -17.1289,12.876957 -3.64663,8.92378 -0.99624,18.57109 6.01562,21.89844 6.80333,3.22838 11.65097,1.63508 18.449221,-6.06641 5.393007,-6.10953 5.444857,-6.18422 7.037107,-10.0625 0.731,-1.78051 1.69905,-3.00942 2.15039,-2.73047 2.55675,1.58015 4.24818,7.70057 4.82618,17.4668 0.34179,5.77499 0.98472,11.0625 1.42968,11.75 1.1814,1.82537 4.47891,1.52691 5.52344,-0.5 0.49601,-0.9625 1.19781,-5.15984 1.56055,-9.32812 1.07684,-12.37394 -1.68097,-21.33153 -8.9043,-28.921885 -1.1022,-1.158197 -3.10742,-2.466797 -3.10742,-2.466797 0,0 -0.48772,-3.078319 -0.92383,-5.832031 -0.43611,-2.753712 -1.7878,-6.76631 -3.42969,-9.488281 -1.64189,-2.721973 -8.257217,-11.979099 -14.078118,-15.746094 l -5.94922,-3.849609 -1.91992,-5.058594 c -3.11784,-8.209987 -4.82082,-10.998273 -9.17969,-15.03125 -6.14689,-5.687314 -16.62386,-9.772878 -26.40039,-10.294922 -1.3006,-0.254668 -2.50719,-0.386284 -3.66016,-0.414063 z m 26.58594,38.619141 c 1.65584,0.05468 2.85937,0.513672 2.85937,0.513672 0,0 0.39412,2.59764 -0.74414,5.578125 -2.44619,6.405271 -7.49381,10.470703 -13.0039,10.470703 -2.70042,0 -5.01334,-0.618806 -6,-1.605469 -4.33123,-4.331225 4.5869,-13.094073 15.10937,-14.845703 0.62502,-0.104045 1.22735,-0.129555 1.7793,-0.111328 z m 25.154295,34.101562 c 0.598277,-0.0072 0.962891,0.02344 0.962891,0.02344 0,0 0.457031,0.792702 0.457031,1.373043 0,5.26228 -6.275187,13.06446 -10.507807,13.06446 -3.11315,0.45456 -3.20076,-1.3982 -4.49219,-3.94727 1.02069,-3.31223 3.03257,-5.28452 5.40039,-7.65234 2.48552,-2.485528 6.38485,-2.839796 8.179685,-2.861331 z" />
  </g>
</svg>
