<?xml version="1.0" encoding="UTF-8" standalone="no"?>
<svg
   viewBox="0 0 143.67996 223.53212"
   height="223.53214"
   width="143.67996"
   xml:space="preserve"
   id="svg2"
   version="1.1"
   xmlns="http://www.w3.org/2000/svg"
   xmlns:svg="http://www.w3.org/2000/svg"
   xmlns:rdf="http://www.w3.org/1999/02/22-rdf-syntax-ns#"
   xmlns:cc="http://creativecommons.org/ns#"
   xmlns:dc="http://purl.org/dc/elements/1.1/"><metadata
     id="metadata8"><rdf:RDF><cc:Work
         rdf:about=""><dc:format>image/svg+xml</dc:format><dc:type
           rdf:resource="http://purl.org/dc/dcmitype/StillImage" /></cc:Work></rdf:RDF></metadata><defs
     id="defs6"><clipPath
       clipPathUnits="userSpaceOnUse"
       id="clipPath23127"><g
         id="g23131"
         style="stroke-width:1.33333"
         transform="matrix(0.75000002,0,0,-0.75000002,-434.2185,191.76454)"><path
           id="path23129"
           d="M 0,6e-5 H 1066.6666 V 1066.6667 H 0 Z"
           style="stroke-width:1.33333" /></g></clipPath><clipPath
       clipPathUnits="userSpaceOnUse"
       id="clipPath23133"><g
         id="g23137"><path
           id="path23135"
           d="M 0,6e-5 H 1066.6666 V 1066.6667 H 0 Z"
           style="stroke-width:1" /></g></clipPath><clipPath
       clipPathUnits="userSpaceOnUse"
       id="clipPath23139"><g
         id="g23143"
         style="stroke-width:1.33333"
         transform="matrix(0.75000002,0,0,-0.75000002,-436.5234,188.74264)"><path
           id="path23141"
           d="M 0,6e-5 H 1066.6666 V 1066.6667 H 0 Z"
           style="stroke-width:1.33333" /></g></clipPath><clipPath
       clipPathUnits="userSpaceOnUse"
       id="clipPath23145"><g
         id="g23149"
         style="stroke-width:1.33333"
         transform="matrix(0.75000002,0,0,-0.75000002,-423.0131,204.09915)"><path
           id="path23147"
           d="M 0,6e-5 H 1066.6666 V 1066.6667 H 0 Z"
           style="stroke-width:1.33333" /></g></clipPath><clipPath
       clipPathUnits="userSpaceOnUse"
       id="clipPath23151"><g
         id="g23155"
         style="stroke-width:1.33333"
         transform="matrix(0.75000002,0,0,-0.75000002,-378.75,191.76454)"><path
           id="path23153"
           d="M 0,6e-5 H 1066.6666 V 1066.6667 H 0 Z"
           style="stroke-width:1.33333" /></g></clipPath><clipPath
       clipPathUnits="userSpaceOnUse"
       id="clipPath23157"><g
         id="g23161"><path
           id="path23159"
           d="M 0,6e-5 H 1066.6666 V 1066.6667 H 0 Z"
           style="stroke-width:1" /></g></clipPath><clipPath
       clipPathUnits="userSpaceOnUse"
       id="clipPath23163"><g
         id="g23167"
         style="stroke-width:1.33333"
         transform="matrix(0.75000002,0,0,-0.75000002,-381.0548,188.74264)"><path
           id="path23165"
           d="M 0,6e-5 H 1066.6666 V 1066.6667 H 0 Z"
           style="stroke-width:1.33333" /></g></clipPath><clipPath
       clipPathUnits="userSpaceOnUse"
       id="clipPath23169"><g
         id="g23173"
         style="stroke-width:1.33333"
         transform="matrix(0.75000002,0,0,-0.75000002,-367.5443,204.09915)"><path
           id="path23171"
           d="M 0,6e-5 H 1066.6666 V 1066.6667 H 0 Z"
           style="stroke-width:1.33333" /></g></clipPath><clipPath
       clipPathUnits="userSpaceOnUse"
       id="clipPath23175"><g
         id="g23179"
         style="stroke-width:1.33333"
         transform="matrix(0.75000002,0,0,-0.75000002,-411.152,126.36105)"><path
           id="path23177"
           d="M 0,6e-5 H 1066.6666 V 1066.6667 H 0 Z"
           style="stroke-width:1.33333" /></g></clipPath><clipPath
       clipPathUnits="userSpaceOnUse"
       id="clipPath23181"><g
         id="g23185"
         style="stroke-width:1.33333"
         transform="matrix(0.75000002,0,0,-0.75000002,-411.152,126.36105)"><path
           id="path23183"
           d="M 0,6e-5 H 1066.6666 V 1066.6667 H 0 Z"
           style="stroke-width:1.33333" /></g></clipPath><clipPath
       clipPathUnits="userSpaceOnUse"
       id="clipPath23187"><g
         id="g23191"
         style="stroke-width:1.33333"
         transform="matrix(0.75000002,0,0,-0.75000002,-444.4163,245.22424)"><path
           id="path23189"
           d="M 0,6e-5 H 1066.6666 V 1066.6667 H 0 Z"
           style="stroke-width:1.33333" /></g></clipPath><clipPath
       clipPathUnits="userSpaceOnUse"
       id="clipPath23193"><g
         id="g23197"
         style="stroke-width:1.33333"
         transform="matrix(0.75000002,0,0,-0.75000002,-444.4163,241.60275)"><path
           id="path23195"
           d="M 0,6e-5 H 1066.6666 V 1066.6667 H 0 Z"
           style="stroke-width:1.33333" /></g></clipPath><clipPath
       clipPathUnits="userSpaceOnUse"
       id="clipPath23199"><g
         id="g23203"
         style="stroke-width:1.33333"
         transform="matrix(0.75000002,0,0,-0.75000002,-369.4095,266.15875)"><path
           id="path23201"
           d="M 0,6e-5 H 1066.6666 V 1066.6667 H 0 Z"
           style="stroke-width:1.33333" /></g></clipPath><clipPath
       clipPathUnits="userSpaceOnUse"
       id="clipPath23205"><g
         id="g23209"
         style="stroke-width:1.33333"
         transform="matrix(0.75000002,0,0,-0.75000002,-379.7703,127.86215)"><path
           id="path23207"
           d="M 0,6e-5 H 1066.6666 V 1066.6667 H 0 Z"
           style="stroke-width:1.33333" /></g></clipPath><clipPath
       clipPathUnits="userSpaceOnUse"
       id="clipPath23211"><g
         id="g23215"
         style="stroke-width:1.33333"
         transform="matrix(0.75000002,0,0,-0.75000002,-369.8285,221.05965)"><path
           id="path23213"
           d="M 0,6e-5 H 1066.6666 V 1066.6667 H 0 Z"
           style="stroke-width:1.33333" /></g></clipPath><clipPath
       clipPathUnits="userSpaceOnUse"
       id="clipPath23217"><g
         id="g23221"
         style="stroke-width:1.33333"
         transform="matrix(0.75000002,0,0,-0.75000002,-424.2975,127.86215)"><path
           id="path23219"
           d="M 0,6e-5 H 1066.6666 V 1066.6667 H 0 Z"
           style="stroke-width:1.33333" /></g></clipPath><clipPath
       clipPathUnits="userSpaceOnUse"
       id="clipPath23223"><g
         id="g23227"
         style="stroke-width:1.33333"
         transform="matrix(0.75000002,0,0,-0.75000002,-425.2972,221.05965)"><path
           id="path23225"
           d="M 0,6e-5 H 1066.6666 V 1066.6667 H 0 Z"
           style="stroke-width:1.33333" /></g></clipPath><clipPath
       clipPathUnits="userSpaceOnUse"
       id="clipPath23229"><g
         id="g23233"
         style="stroke-width:1.33333"
         transform="matrix(0.75000002,0,0,-0.75000002,-455.9136,258.40084)"><path
           id="path23231"
           d="M 0,6e-5 H 1066.6666 V 1066.6667 H 0 Z"
           style="stroke-width:1.33333" /></g></clipPath><clipPath
       clipPathUnits="userSpaceOnUse"
       id="clipPath23235"><g
         id="g23239"
         style="stroke-width:1.33333"
         transform="matrix(0.75000002,0,0,-0.75000002,-369.4086,278.65585)"><path
           id="path23237"
           d="M 0,6e-5 H 1066.6666 V 1066.6667 H 0 Z"
           style="stroke-width:1.33333" /></g></clipPath><clipPath
       clipPathUnits="userSpaceOnUse"
       id="clipPath23241"><g
         id="g23245"
         style="stroke-width:1.33333"
         transform="matrix(0.75000002,0,0,-0.75000002,-391.0397,126.36095)"><path
           id="path23243"
           d="M 0,6e-5 H 1066.6666 V 1066.6667 H 0 Z"
           style="stroke-width:1.33333" /></g></clipPath><clipPath
       clipPathUnits="userSpaceOnUse"
       id="clipPath23247"><g
         id="g23251"
         style="stroke-width:1.33333"
         transform="matrix(0.75000002,0,0,-0.75000002,-402.0339,152.20264)"><path
           id="path23249"
           d="M 0,6e-5 H 1066.6666 V 1066.6667 H 0 Z"
           style="stroke-width:1.33333" /></g></clipPath><clipPath
       clipPathUnits="userSpaceOnUse"
       id="clipPath23253"><g
         id="g23257"
         style="stroke-width:1.33333"
         transform="matrix(0.75000002,0,0,-0.75000002,-402.0336,172.33455)"><path
           id="path23255"
           d="M 0,6e-5 H 1066.6666 V 1066.6667 H 0 Z"
           style="stroke-width:1.33333" /></g></clipPath><clipPath
       clipPathUnits="userSpaceOnUse"
       id="clipPath23259"><g
         id="g23263"
         style="stroke-width:1.33333"
         transform="matrix(0.75000002,0,0,-0.75000002,-411.152,126.36105)"><path
           id="path23261"
           d="M 0,6e-5 H 1066.6666 V 1066.6667 H 0 Z"
           style="stroke-width:1.33333" /></g></clipPath><clipPath
       clipPathUnits="userSpaceOnUse"
       id="clipPath23265"><g
         id="g23269"
         style="stroke-width:1.33333"
         transform="matrix(0.75000002,0,0,-0.75000002,-370.3392,198.17584)"><path
           id="path23267"
           d="M 0,6e-5 H 1066.6666 V 1066.6667 H 0 Z"
           style="stroke-width:1.33333" /></g></clipPath><clipPath
       clipPathUnits="userSpaceOnUse"
       id="clipPath23271"><g
         id="g23275"
         style="stroke-width:1.33333"
         transform="matrix(0.75000002,0,0,-0.75000002,-411.152,126.36105)"><path
           id="path23273"
           d="M 0,6e-5 H 1066.6666 V 1066.6667 H 0 Z"
           style="stroke-width:1.33333" /></g></clipPath><clipPath
       clipPathUnits="userSpaceOnUse"
       id="clipPath23277"><g
         id="g23281"
         style="stroke-width:1.33333"
         transform="matrix(0.75000002,0,0,-0.75000002,-370.3392,278.65585)"><path
           id="path23279"
           d="M 0,6e-5 H 1066.6666 V 1066.6667 H 0 Z"
           style="stroke-width:1.33333" /></g></clipPath></defs><g
     transform="matrix(1.3333333,0,0,-1.3333333,29.580277,222.19854)"
     id="g230"
     clip-path="url(#clipPath23277)"><path
       id="path232"
       style="fill:#589f73;fill-opacity:1;fill-rule:nonzero;stroke:none"
       d="m 0,0 c -11.682,0 -21.185,9.503 -21.185,21.185 v 86.348 c 0,24.131 19.631,43.762 43.761,43.762 h 18.237 c 24.129,0 43.761,-19.631 43.761,-43.762 V 21.185 C 84.574,9.503 75.071,0 63.39,0 Z" /></g><g
     transform="matrix(1.3333333,0,0,-1.3333333,83.997337,19.138808)"
     id="g234"
     clip-path="url(#clipPath23271)"><path
       id="path236"
       style="fill:#005639;fill-opacity:1;fill-rule:nonzero;stroke:none"
       d="m 0,0 h -18.236 c -24.721,0 -44.762,-20.04 -44.762,-44.762 v -86.348 c 0,-12.252 9.933,-22.185 22.185,-22.185 h 63.39 c 12.252,0 22.185,9.933 22.185,22.185 v 86.348 C 44.762,-20.04 24.721,0 0,0 m 0,-2 c 23.579,0 42.762,-19.183 42.762,-42.762 v -86.348 c 0,-11.13 -9.055,-20.185 -20.185,-20.185 h -63.39 c -11.13,0 -20.185,9.055 -20.185,20.185 v 86.348 c 0,23.579 19.183,42.762 42.762,42.762 L 0,-2" /></g><g
     transform="matrix(1.3333333,0,0,-1.3333333,29.580277,114.89187)"
     id="g238"
     clip-path="url(#clipPath23265)"><path
       id="path240"
       style="fill:#589f73;fill-opacity:1;fill-rule:nonzero;stroke:none"
       d="m 0,0 c -11.682,0 -21.185,9.503 -21.185,21.185 v 5.868 c 0,24.131 19.631,43.762 43.761,43.762 h 18.237 c 24.129,0 43.761,-19.631 43.761,-43.762 V 21.185 C 84.574,9.503 75.071,0 63.39,0 Z" /></g><g
     transform="matrix(1.3333333,0,0,-1.3333333,83.997337,19.138808)"
     id="g242"
     clip-path="url(#clipPath23259)"><path
       id="path244"
       style="fill:#005639;fill-opacity:1;fill-rule:nonzero;stroke:none"
       d="m 0,0 h -18.236 c -24.721,0 -44.762,-20.04 -44.762,-44.761 v -5.869 c 0,-12.253 9.933,-22.185 22.185,-22.185 h 63.39 c 12.252,0 22.185,9.932 22.185,22.185 v 5.869 C 44.762,-20.04 24.721,0 0,0 m 0,-2 c 23.579,0 42.762,-19.183 42.762,-42.761 v -5.869 c 0,-11.13 -9.055,-20.185 -20.185,-20.185 h -63.39 c -11.13,0 -20.185,9.055 -20.185,20.185 v 5.869 c 0,23.578 19.183,42.761 42.762,42.761 L 0,-2" /></g><g
     transform="matrix(1.3333333,0,0,-1.3333333,71.839477,80.436808)"
     id="g246"
     clip-path="url(#clipPath23253)"><path
       id="path248"
       style="fill:#fff799;fill-opacity:1;fill-rule:nonzero;stroke:none"
       d="m 0,0 c -5.274,0 -9.565,4.291 -9.565,9.566 0,5.275 4.291,9.566 9.565,9.566 5.275,0 9.566,-4.291 9.566,-9.566 C 9.566,4.291 5.275,0 0,0" /></g><g
     transform="matrix(1.3333333,0,0,-1.3333333,71.839877,53.594268)"
     id="g250"
     clip-path="url(#clipPath23247)"><path
       id="path252"
       style="fill:#005639;fill-opacity:1;fill-rule:nonzero;stroke:none"
       d="m 0,0 c -5.835,0 -10.566,-4.731 -10.566,-10.566 0,-5.835 4.731,-10.566 10.566,-10.566 5.835,0 10.566,4.731 10.566,10.566 C 10.566,-4.731 5.835,0 0,0 m 0,-2 c 4.723,0 8.566,-3.843 8.566,-8.566 0,-4.723 -3.843,-8.566 -8.566,-8.566 -4.723,0 -8.566,3.843 -8.566,8.566 C -8.566,-5.843 -4.723,-2 0,-2" /></g><g
     transform="matrix(1.3333333,0,0,-1.3333333,57.180937,19.138678)"
     id="g254"
     clip-path="url(#clipPath23241)"><path
       id="path256"
       style="fill:#005639;fill-opacity:1;fill-rule:nonzero;stroke:none"
       d="m 0,0 h 3.624 c 0.024,4.051 3.314,7.328 7.37,7.328 4.057,0 7.346,-3.277 7.37,-7.328 h 3.624 c 1.146,0 2.277,-0.058 3.399,-0.146 0.001,0.034 0.005,0.067 0.005,0.102 0,7.952 -6.446,14.398 -14.398,14.398 -7.952,0 -14.398,-6.446 -14.398,-14.398 0,-0.035 0.005,-0.068 0.005,-0.102 C -2.276,-0.058 -1.145,0 0,0" /></g><g
     transform="matrix(1.3333333,0,0,-1.3333333,28.339477,222.19854)"
     id="g258"
     clip-path="url(#clipPath23235)"><path
       id="path260"
       style="fill:#f37043;fill-opacity:1;fill-rule:nonzero;stroke:none"
       d="M 0,0 C -10.833,0 -19.706,8.549 -20.229,19.255 H 85.48 C 84.957,8.549 76.083,0 65.25,0 Z" /></g><g
     transform="matrix(1.3333333,0,0,-1.3333333,143.67947,195.19187)"
     id="g262"
     clip-path="url(#clipPath23229)"><path
       id="path264"
       style="fill:#005639;fill-opacity:1;fill-rule:nonzero;stroke:none"
       d="m 0,0 h -107.759 c 0,-11.739 9.516,-21.255 21.254,-21.255 h 65.25 C -9.516,-21.255 0,-11.739 0,0 m -2.103,-2 c -1.004,-9.681 -9.21,-17.255 -19.152,-17.255 h -65.25 c -9.941,0 -18.148,7.574 -19.151,17.255 H -2.103" /></g><g
     transform="matrix(1.3333333,0,0,-1.3333333,102.85761,145.40361)"
     id="g266"
     clip-path="url(#clipPath23223)"><path
       id="path268"
       style="fill:#faa73f;fill-opacity:1;fill-rule:nonzero;stroke:none"
       d="M 0,0 V 91.681 L 8.941,87.846 V 0 Z" /></g><g
     transform="matrix(1.3333333,0,0,-1.3333333,101.52468,21.140278)"
     id="g270"
     clip-path="url(#clipPath23217)"><path
       id="path272"
       style="fill:#005639;fill-opacity:1;fill-rule:nonzero;stroke:none"
       d="M 0,0 V -94.197 H 10.941 V -4.692 Z M 2,-3.034 8.941,-6.01 V -92.197 H 2 Z" /></g><g
     transform="matrix(1.3333333,0,0,-1.3333333,28.899337,145.40361)"
     id="g274"
     clip-path="url(#clipPath23211)"><path
       id="path276"
       style="fill:#faa73f;fill-opacity:1;fill-rule:nonzero;stroke:none"
       d="m 0,0 v 87.846 l 8.941,3.835 V 0 Z" /></g><g
     transform="matrix(1.3333333,0,0,-1.3333333,42.155077,21.140278)"
     id="g278"
     clip-path="url(#clipPath23205)"><path
       id="path280"
       style="fill:#005639;fill-opacity:1;fill-rule:nonzero;stroke:none"
       d="M 0,0 -10.941,-4.692 V -94.197 H 0 Z M -2,-3.034 V -92.197 H -8.941 V -6.01 Z" /></g><g
     transform="matrix(1.3333333,0,0,-1.3333333,28.340677,205.53574)"
     id="g282"
     clip-path="url(#clipPath23199)"><path
       id="path284"
       style="fill:#589f73;fill-opacity:1;fill-rule:nonzero;stroke:none"
       d="M 0,0 C -4.277,0 -7.758,3.48 -7.758,7.758 V 22.556 H 73.007 V 7.758 C 73.007,3.48 69.526,0 65.249,0 Z" /></g><g
     transform="matrix(1.3333333,0,0,-1.3333333,128.34974,172.79441)"
     id="g286"
     clip-path="url(#clipPath23193)"><path
       id="path288"
       style="fill:#005639;fill-opacity:1;fill-rule:nonzero;stroke:none"
       d="m 0,0 h -84.765 v -16.798 c 0,-5.38 4.377,-9.758 9.758,-9.758 h 65.249 c 5.381,0 9.758,4.378 9.758,9.758 z m -4,-4 v -12.798 c 0,-3.175 -2.583,-5.758 -5.758,-5.758 h -65.249 c -3.175,0 -5.758,2.583 -5.758,5.758 V -4 H -4" /></g><g
     transform="matrix(1.3333333,0,0,-1.3333333,128.34974,177.62307)"
     id="g290"
     clip-path="url(#clipPath23187)"><path
       id="path292"
       style="fill:#005639;fill-opacity:1;fill-rule:nonzero;stroke:none"
       d="m 0,0 v 9.133 c 0,5.381 -4.377,9.758 -9.758,9.758 h -65.249 c -5.381,0 -9.758,-4.377 -9.758,-9.758 V 0 Z" /></g><g
     transform="matrix(1.3333333,0,0,-1.3333333,83.997337,19.138808)"
     id="g294"
     clip-path="url(#clipPath23181)"><path
       id="path296"
       style="fill:#005639;fill-opacity:1;fill-rule:nonzero;stroke:none"
       d="m 0,0 h -18.236 c -24.721,0 -44.762,-20.04 -44.762,-44.762 v -86.348 c 0,-12.252 9.933,-22.185 22.185,-22.185 h 63.39 c 12.252,0 22.185,9.933 22.185,22.185 v 86.348 C 44.762,-20.04 24.721,0 0,0 m 0,-4 c 22.476,0 40.762,-18.286 40.762,-40.762 v -86.348 c 0,-10.027 -8.158,-18.185 -18.185,-18.185 h -63.39 c -10.027,0 -18.185,8.158 -18.185,18.185 v 86.348 c 0,22.476 18.286,40.762 40.762,40.762 L 0,-4" /></g><g
     transform="matrix(1.3333333,0,0,-1.3333333,83.997337,19.138808)"
     id="g298"
     clip-path="url(#clipPath23175)"><path
       id="path300"
       style="fill:#005639;fill-opacity:1;fill-rule:nonzero;stroke:none"
       d="m 0,0 h -18.236 c -24.721,0 -44.762,-20.04 -44.762,-44.761 v -5.869 c 0,-12.253 9.933,-22.185 22.185,-22.185 h 63.39 c 12.252,0 22.185,9.932 22.185,22.185 v 5.869 C 44.762,-20.04 24.721,0 0,0 m 0,-4 c 22.476,0 40.762,-18.286 40.762,-40.761 v -5.869 c 0,-10.027 -8.158,-18.185 -18.185,-18.185 h -63.39 c -10.027,0 -18.185,8.158 -18.185,18.185 v 5.869 c 0,22.475 18.286,40.761 40.762,40.761 L 0,-4" /></g><g
     transform="matrix(1.3333333,0,0,-1.3333333,25.853737,122.78961)"
     id="g302"
     clip-path="url(#clipPath23169)"><path
       id="path304"
       style="fill:#ffffff;fill-opacity:1;fill-rule:nonzero;stroke:none"
       d="m 0,0 c -0.209,0 -0.38,0.17 -0.38,0.38 v 13.597 c 0,0.209 0.171,0.379 0.38,0.379 h 13.511 c 0.209,0 0.38,-0.17 0.38,-0.379 V 0.38 C 13.891,0.17 13.72,0 13.511,0 Z" /></g><g
     transform="matrix(1.3333333,0,0,-1.3333333,43.867737,102.31427)"
     id="g306"
     clip-path="url(#clipPath23163)"><path
       id="path308"
       style="fill:#005639;fill-opacity:1;fill-rule:nonzero;stroke:none"
       d="m 0,0 h -13.51 c -0.763,0 -1.381,-0.618 -1.381,-1.38 v -13.596 c 0,-0.763 0.618,-1.381 1.381,-1.381 H 0 c 0.762,0 1.38,0.618 1.38,1.381 V -1.38 C 1.38,-0.618 0.762,0 0,0 M -0.62,-14.357 H -12.891 V -2 H -0.62 Z" /></g><path
     id="path310"
     style="fill:#faa73f;fill-opacity:1;fill-rule:nonzero;stroke:none;stroke-width:1.33333"
     d="m 493.55999,257.02005 h 11.012 v 11.084 h -11.012 z"
     clip-path="url(#clipPath23157)"
     transform="translate(-464.20531,-149.34258)" /><g
     transform="matrix(1.3333333,0,0,-1.3333333,40.794677,106.34347)"
     id="g312"
     clip-path="url(#clipPath23151)"><path
       id="path314"
       style="fill:#005639;fill-opacity:1;fill-rule:nonzero;stroke:none"
       d="M 0,0 H -8.901 C -9.276,0 -9.58,-0.304 -9.58,-0.679 v -8.955 c 0,-0.375 0.304,-0.679 0.679,-0.679 H 0 c 0.375,0 0.679,0.304 0.679,0.679 v 8.955 C 0.679,-0.304 0.375,0 0,0 m -1.321,-8.313 h -6.258 v 6.312 h 6.258 z" /></g><g
     transform="matrix(1.3333333,0,0,-1.3333333,99.812137,122.78961)"
     id="g316"
     clip-path="url(#clipPath23145)"><path
       id="path318"
       style="fill:#ffffff;fill-opacity:1;fill-rule:nonzero;stroke:none"
       d="m 0,0 c -0.209,0 -0.38,0.17 -0.38,0.38 v 13.597 c 0,0.209 0.171,0.379 0.38,0.379 h 13.511 c 0.209,0 0.38,-0.17 0.38,-0.379 V 0.38 C 13.891,0.17 13.72,0 13.511,0 Z" /></g><g
     transform="matrix(1.3333333,0,0,-1.3333333,117.82588,102.31427)"
     id="g320"
     clip-path="url(#clipPath23139)"><path
       id="path322"
       style="fill:#005639;fill-opacity:1;fill-rule:nonzero;stroke:none"
       d="m 0,0 h -13.51 c -0.763,0 -1.381,-0.618 -1.381,-1.38 v -13.596 c 0,-0.763 0.618,-1.381 1.381,-1.381 H 0 c 0.762,0 1.38,0.618 1.38,1.381 V -1.38 C 1.38,-0.618 0.762,0 0,0 M -0.62,-14.357 H -12.891 V -2 H -0.62 Z" /></g><path
     id="path324"
     style="fill:#faa73f;fill-opacity:1;fill-rule:nonzero;stroke:none;stroke-width:1.33333"
     d="m 567.51865,257.02005 h 11.012 v 11.084 h -11.012 z"
     clip-path="url(#clipPath23133)"
     transform="translate(-464.20531,-149.34258)" /><g
     transform="matrix(1.3333333,0,0,-1.3333333,114.75268,106.34347)"
     id="g326"
     clip-path="url(#clipPath23127)"><path
       id="path328"
       style="fill:#005639;fill-opacity:1;fill-rule:nonzero;stroke:none"
       d="m 0,0 h -8.901 c -0.375,0 -0.678,-0.304 -0.678,-0.679 v -8.955 c 0,-0.375 0.303,-0.679 0.678,-0.679 H 0 c 0.375,0 0.679,0.304 0.679,0.679 v 8.955 C 0.679,-0.304 0.375,0 0,0 m -1.321,-8.313 h -6.258 v 6.312 h 6.258 z" /></g></svg>
