<?xml version="1.0" encoding="UTF-8" standalone="no"?>
<!-- Created with Inkscape (http://www.inkscape.org/) -->

<svg
   version="1.1"
   id="svg3274"
   width="156.64876"
   height="69.989662"
   viewBox="0 0 156.64876 69.989662"
   xmlns="http://www.w3.org/2000/svg"
   xmlns:svg="http://www.w3.org/2000/svg">
  <defs
     id="defs3278" />
  <g
     id="g3280"
     transform="translate(-19.35124,-7.1699963)">
    <path
       style="fill:#5d6ea3;fill-opacity:1"
       d="m 123.7419,75.75 c -1.46291,-1.11478 -9.6193,-11.951461 -12.25744,-16.285391 -0.86483,-1.42074 -2.1012,-0.465982 -8.3311,6.433533 C 93.12487,77.004522 92.087256,76.909281 82.473979,64 79.402176,59.875 76.576384,56.634774 76.194441,56.799499 75.812499,56.964223 72.8,59.704379 69.5,62.888733 61.218189,70.880317 58.48333,72.54125 55.696862,71.27165 54.475196,70.715022 50.864802,66.376189 47.673764,61.629799 44.482726,56.88341 41.338204,53.011427 40.685938,53.025393 40.033672,53.03936 36.8,55.303997 33.5,58.057921 27.042855,63.446553 23.538567,64.938567 21.687366,63.087366 20.030009,61.430009 38.119936,44 41.497399,44 c 1.700226,0 3.990938,1.902003 8.042551,6.677815 3.115858,3.672799 6.177285,7.497799 6.80317,8.5 0.625886,1.002202 1.592228,1.80688 2.147427,1.788174 0.555199,-0.01871 4.370231,-3.393706 8.477848,-7.5 C 71.636192,48.799695 75.244617,46 76.591035,46 c 2.272919,0 7.78752,5.428706 12.930046,12.728649 1.638406,2.325756 3.453439,4.238256 4.033408,4.25 0.57997,0.01174 3.683945,-2.936831 6.897721,-6.552387 6.7864,-7.634821 9.74694,-9.815223 12.24883,-9.021137 0.98943,0.31404 4.67335,4.851357 8.18649,10.082928 3.51314,5.231571 6.8283,9.511947 7.36702,9.511947 0.9651,0 3.62579,-2.614199 13.00979,-12.782465 5.43979,-5.894417 8.16599,-7.643978 10.14369,-6.50981 0.75984,0.435751 4.80387,4.794356 8.98675,9.685789 7.83128,9.157862 9.60494,13.625144 5.96432,15.022183 -2.21366,0.849457 -4.92,-1.077074 -11.40235,-8.116847 L 149.5,58.372872 140.20142,67.686436 C 130.55423,77.349169 127.68504,78.754791 123.7419,75.75 Z M 53.109196,40.25 C 49.394637,33.038017 48.47329,31.465262 45.200659,26.75 43.387452,24.1375 41.561651,22 41.143324,22 40.724997,22 36.385501,25.6 31.5,30 26.614499,34.4 22.014262,38 21.27725,38 19.140445,38 18.682821,35.290925 20.404425,32.832989 23.817425,27.96025 40.428467,12 42.086896,12 c 2.046997,0 7.51088,6.08762 12.740027,14.194382 2.020192,3.13191 3.898077,5.718303 4.173077,5.747539 0.275,0.02924 4.755363,-4.916664 9.956362,-10.990891 12.67123,-14.7986812 12.888496,-14.7696748 22.324032,2.980401 l 3.780395,7.111655 5.895801,-7.271543 c 3.24269,-3.999349 7.86227,-9.480854 10.26572,-12.181124 6.22897,-6.998218 7.62757,-6.3819074 15.65658,6.899247 3.50839,5.803391 6.71216,10.757591 7.11949,11.009333 0.40733,0.251742 2.93146,-2.345047 5.60919,-5.770643 C 147.15727,14.070069 152.09554,9 153.95305,9 c 2.17093,0 4.50538,2.588858 11.27158,12.5 C 172.44316,32.073692 176,38.298964 176,40.359296 c 0,0.92597 -1.12945,2.198194 -2.50989,2.827165 -3.34182,1.522634 -5.2405,-0.321585 -12.99011,-12.617484 -3.3,-5.235938 -6.32721,-9.530932 -6.72712,-9.544432 -0.39992,-0.0135 -4.44992,4.697199 -9,10.46822 -7.8523,9.959324 -10.96277,12.415818 -14.16518,11.186938 -0.76822,-0.294795 -4.17444,-5.743326 -7.56937,-12.107847 C 119.6434,24.207335 116.60805,19 116.29311,19 115.62477,19 115.94578,18.601112 105.09582,32.913721 93.778862,47.842355 93.041547,47.808761 85.04157,32 82.6758,27.325 80.406467,23.130335 79.998607,22.678523 c -0.407859,-0.451813 -4.25298,3.373187 -8.544714,8.5 -4.291733,5.126812 -8.737068,10.098971 -9.878522,11.049241 -3.475726,2.893572 -6.296582,2.234598 -8.466175,-1.977764 z"
       id="path3284" />
  </g>
</svg>
